<svg xmlns="http://www.w3.org/2000/svg" height="170.452" width="172.656" viewBox="0 0 172.65569 170.45238" id="ask_us_s">
  <ellipse cx="86.328" cy="85.226" rx="86.328" ry="85.226" id="path986" fill="#fbc257" stroke-width="11.72"/>
  <path id="path995" d="M127.023 56.952l44.081 44.796c-9.303 43.022-45.37 66.097-77.106 68.348-20.497-19.222-32.154-33.377-50.787-52.226l40.812-53.845c-1.457-7.27-10.949-14.18-10.45-14.362 10.698-3.904 34.848 1.112 53.45 7.289z" fill="#cb983c" stroke-width=".898"/>
  <path id="path4705" d="M48.474 103.96c-.044 5.521-2.713 9.391-5.263 13.91 4.902-.314 10.598-.125 18.421-6.767 20.11 3.89 50.555-3.53 48.496-30.263-6.058-39.342-70.573-30.07-72.556.376-1.055 9.063 4.467 17.176 10.902 22.744z" fill="#fff"/>
  <path id="path4707" d="M73.049 49.745c20.873-5.044 59.733 15.118 38.91 48.308 6.578 4.38 13.157 8.02 19.736 6.955-3.842-3.839-6.235-9.21-6.579-18.045 24.265-37.334-32.201-55.548-52.067-37.218z" fill="#fff"/>
  <text y="90" x="44" font-weight="600" font-size="18" font-family="Open Sans" letter-spacing="0.5" fill="#cb983c" >Ask Us</text>
</svg>
