<svg xmlns="http://www.w3.org/2000/svg" viewBox="0 0 198.60257 201" width="198.603" height="201">
  <ellipse ry="100.608" rx="98.981" cy="100.069" cx="99.504" fill="#860007"/>
  <path d="M130.29 64.222l63.806 65.491c-14.221 46.127-53.648 68.598-87.174 70.65-20.498-19.222-37.111-37.389-55.745-56.238l26.67-48.16z" fill="#710005"/>
  <path d="M51.177 138.105c-13.06 22.464 115.313 23.524 104.172-2.19-22.87-27.413-10.11-78.486-43.673-84.645-.389-11.733-18.422-11.46-17.9-.548-34.045 3.51-16.959 60.547-42.599 87.383z" fill="#fff"/>
  <path d="M61.917 136.463c20.933-13.384 62.538-12.677 81.26-.183 6.27 5.155-20.782 13.857-41.704 12.953-20.955.388-44.103-8.143-39.556-12.77z" fill="#eee"/>
  <path d="M98.448 149.12c-5.302-.127-8.859-.477-13.967-1.377-10.39-1.83-19.525-5.243-22.226-8.305-1.184-1.342-1.104-2.365.258-3.27.925-.615 4.58-2.5 6.238-3.217 20.06-8.673 52.176-8.183 70.368 1.074 4.362 2.22 5.297 3.108 4.766 4.524-.568 1.517-3.116 3.258-7.156 4.89-7.547 3.05-18.08 5.17-28.246 5.685-2.899.147-3.721.146-10.035-.005zm7.329-6.286c3.532-.925 5.912-4.545 6.383-9.708l.087-.956-.729-.092c-6.003-.756-10.277-.788-14.9-.11l-1.56.228.033.83c.058 1.424.432 3.722.774 4.747.855 2.561 2.667 4.103 5.79 4.925 1.491.393 2.956.441 4.122.136z" fill="#710005"/>
</svg>
