<?xml version="1.0" standalone="no"?><!-- Generator: Gravit.io --><svg xmlns="http://www.w3.org/2000/svg" xmlns:xlink="http://www.w3.org/1999/xlink" style="isolation:isolate" viewBox="-1.258 -5.805 126.901 105.751" width="126.901" height="105.751"><defs><clipPath id="_clipPath_cCtkSCAkrVTMCAgevTjx2lD4juDs2ejF"><rect x="-1.258" y="-5.805" width="126.901" height="105.751"/></clipPath></defs><g clip-path="url(#_clipPath_cCtkSCAkrVTMCAgevTjx2lD4juDs2ejF)"><g><g><g><g><path d=" M 28.448 98.367 C 12.563 99.625 -0.812 85.868 0.307 61.576 C 0.864 49.495 5.136 38.516 11.67 29.078 C 24.862 10.027 46.206 -1.507 55.81 -2.46 L 57.501 0.615 Q 16.912 18.527 14.452 59.27 Q 22.293 53.735 28.289 54.811" fill="rgb(228,234,238)" vector-effect="non-scaling-stroke" stroke-width="1" stroke="rgb(228,234,238)" stroke-linejoin="miter" stroke-linecap="square" stroke-miterlimit="3"/><ellipse vector-effect="non-scaling-stroke" cx="27.20238250838109" cy="76.09796000244336" rx="22.85" ry="22.440416019355013" fill="rgb(228,234,238)" stroke-width="1" stroke="rgb(228,234,238)" stroke-linejoin="miter" stroke-linecap="square" stroke-miterlimit="3"/></g></g></g><g><g><g><path d=" M 95.09 98.367 C 79.204 99.625 65.83 85.868 66.949 61.576 C 67.506 49.495 71.778 38.516 78.312 29.078 C 91.503 10.027 112.847 -1.507 122.452 -2.46 L 124.143 0.615 Q 83.554 18.527 81.094 59.27 Q 88.935 53.735 94.931 54.811" fill="rgb(228,234,238)" vector-effect="non-scaling-stroke" stroke-width="1" stroke="rgb(228,234,238)" stroke-linejoin="miter" stroke-linecap="square" stroke-miterlimit="3"/><ellipse vector-effect="non-scaling-stroke" cx="93.64329733984574" cy="76.09796000244336" rx="22.85000000000001" ry="22.440416019355013" fill="rgb(228,234,238)" stroke-width="1" stroke="rgb(228,234,238)" stroke-linejoin="miter" stroke-linecap="square" stroke-miterlimit="3"/></g></g></g></g></g></svg>