<svg xmlns="http://www.w3.org/2000/svg" viewBox="0 0 229.04517 230.57624" width="229.045" height="230.576">
  <ellipse ry="115.288" rx="114.523" cy="115.288" cx="114.523" fill="#03315d"/>
  <path d="M162.196 70.59l65.415 62.773c-9.801 58.05-54.557 89.232-92.935 95.156l-68.674-68.655c52.507 45.491 144.735-24.479 96.194-89.273z" fill="#1d4367"/>
  <ellipse ry="65.994" rx="65.602" cy="115.05" cx="114.273" fill="#81999d"/>
  <ellipse ry="56.471" rx="57.013" cy="115.41" cx="114.005" fill="#fff"/>
  <path d="M112.238 111.694l-28.394-21.23c-1.271 0-2.65.661-2.274 2.953l28.425 21.657c.748-1.164.736-1.385 2.243-3.38zM118.131 117.5l31.464-.106c1.17-1.282 1.363-2.634-.143-3.812-10.529.13-26.567-.08-31.361.05.349.953.582 2.342.04 3.867z"/>
  <path d="M114.219 111.1v-8.815" fill="none" stroke="#000" stroke-width="1.121"/>
  <path d="M114.18 119.788l-.533 33.59" fill="none" stroke="#000" stroke-width="1.087"/>
  <ellipse ry="3.95" rx="3.745" cy="115.557" cx="114.273" fill="#fff" stroke="#03315d" stroke-width="1.262"/>
  <path d="M114.785 120.166v32.388" fill="#03315d"/>
</svg>
