<svg xmlns="http://www.w3.org/2000/svg" viewBox="0 0 100 100" width="100" height="100">
  <path fill="#00305e" d="M57.566 60.819L40.735 77.682H29.597v11.16H18.772V100H0V81.193l39.295-39.181a31.392 31.392 0 0 1-1.867-10.667C37.428 14.15 51.55 0 68.714 0 85.877 0 100 14.15 100 31.345c0 17.196-14.123 31.345-31.286 31.345-3.63 0-7.234-.633-10.647-1.871h-.5zm31.287-38.93c0-6.122-5.028-11.16-11.138-11.16s-11.138 5.038-11.138 11.16c0 6.121 5.027 11.158 11.138 11.158 6.11 0 11.138-5.037 11.138-11.158z" />
</svg>
