<svg xmlns="http://www.w3.org/2000/svg" width="14.47" height="15.59" viewBox="0 0 14.47 15.59">
  <defs>
    <style>
      .a{fill:#00305e}
    </style>
  </defs>
  <title>
    icon-user
  </title>
  <path class="a" d="M10.87 7.46c-.69 1.57-2.18 2.88-3.63 2.88A4.24 4.24 0 0 1 3.5 7.48C-.5 9.54.02 14.77.02 14.77c0 .72.56.82 1.23.82h12c.66 0 1.23-.1 1.23-.82-.02-.01.37-5.2-3.61-7.31z"/>
  <path class="a" d="M7.24 9.49c2 0 3.58-2.86 3.58-5.22S9.2 0 7.21 0 3.6 1.91 3.6 4.27s1.64 5.22 3.64 5.22z"/>
</svg>
