<svg xmlns="http://www.w3.org/2000/svg" width="16.03" height="13.08" viewBox="0 0 16.03 13.08">
  <defs>
    <style>
      .a{fill:#00305e}
    </style>
  </defs>
  <title>
    icon-message
  </title>
  <path class="a" d="M6.48 11.95a8.23 8.23 0 0 1-2.18-.29 6.15 6.15 0 0 1-3.39 1.42 4.17 4.17 0 0 0 .92-2.64A4.46 4.46 0 0 1 0 6.97c0-2.75 2.9-5 6.48-5s6.48 2.23 6.48 5-2.91 4.98-6.48 4.98zM5.33 1.15A7.71 7.71 0 0 1 9.47 0c3.58 0 6.48 2.23 6.48 5a4.12 4.12 0 0 1-.86 2.48c0 .87 0 2.77.94 3.63a6.15 6.15 0 0 1-3.39-1.42 4.72 4.72 0 0 0 1.31-3.2c0-3-3.12-5.48-7-5.48a8.81 8.81 0 0 0-1.62.14z"/>
</svg>
