<svg xmlns="http://www.w3.org/2000/svg" height="170.452" width="172.656" viewBox="0 0 172.65569 170.45238">
  <ellipse cx="86.328" cy="85.226" rx="86.328" ry="85.226" fill="#fbc257"/>
  <path d="M86.183 22.497c-27.04 0-48.969 21.655-48.969 48.355 0 31.06 35.266 69.816 40.807 75.74 2.294 2.458 4.212 4.852 8.162 4.852 3.95 0 5.868-2.394 8.161-4.852 5.542-5.924 40.807-44.68 40.807-75.74 0-26.7-21.93-48.355-48.968-48.355zm0 80.592c-18.029 0-32.646-14.434-32.646-32.237 0-17.802 14.617-32.236 32.646-32.236 18.028 0 32.646 14.434 32.646 32.236 0 17.803-14.618 32.237-32.646 32.237zm0-48.355c-9.01 0-16.323 7.22-16.323 16.118 0 8.897 7.313 16.118 16.323 16.118 9.01 0 16.323-7.22 16.323-16.118 0-8.897-7.313-16.118-16.323-16.118z" fill="#fff"/>
</svg>
