<svg xmlns="http://www.w3.org/2000/svg" height="170.452" width="172.656" viewBox="0 0 172.65569 170.45238">
  <ellipse cx="86.328" cy="85.226" rx="86.328" ry="85.226" fill="#fbc257"/>
  <path d="M81.914 94.012c-1.655-.728-8.763-5.28-15.796-10.114-7.032-4.834-16.05-10.972-20.04-13.64-12.276-8.21-15.902-12.037-17.803-18.791-.976-3.468-.971-5.063.02-5.98.707-.655 6.713-.73 58.608-.73 50.597 0 57.897.087 58.44.692 1.101 1.228.434 6.63-1.186 9.592-3.49 6.383-3.378 6.298-46.1 35.306-4.813 3.269-8.79 4.991-11.524 4.99-.886 0-2.964-.596-4.62-1.325z" fill="#fff"/>
  <path d="M28.332 128.389c-.715-.737-1.322-9.107-1.322-34.968V64.196l2.184 2.167c1.202 1.192 6.463 5.335 11.692 9.208 5.23 3.872 14.541 10.934 20.693 15.693 12.711 9.833 15.159 11.415 20.08 12.98 2.748.873 4.402 1.063 7.59.873 5.873-.35 11.053-3.158 22.817-12.366 5.087-3.983 14.107-10.853 20.043-15.268 5.936-4.414 12.007-9.043 13.49-10.287l2.699-2.262v29.053c0 21.89-.152 33.628-.617 34.108-.473.487-14.462.636-59.836.636-53.15 0-58.789.405-59.513-.342z" fill="#fff"/>
  <path d="M22.302 122.989c43.711-31.534 44.74-32.621 44.74-32.621l2.057-.544-3.6.544" fill="none" stroke="#fbc257" stroke-width="9.691"/>
  <path d="M104.706 89.277l50.365 32.708" fill="none" stroke="#fbc257" stroke-width="11.156"/>
</svg>
