<svg xmlns="http://www.w3.org/2000/svg" viewBox="0 0 172.65569 170.45238" width="172.656" height="170.452">
  <ellipse ry="85.226" rx="86.328" cy="85.226" cx="86.328" fill="#fbc257"/>
  <path d="M137.616 116.76a5.717 5.717 0 0 1 1.253 2.183c.334 1.104.324 2.234-.03 3.4-.351 1.163-1.031 2.187-2.034 3.066l-4.728 4.084a34.255 34.255 0 0 1-5.786 3.983 37.1 37.1 0 0 1-6.263 2.69 36.32 36.32 0 0 1-10.834 1.767 42.147 42.147 0 0 1-11.163-1.383c-3.711-.966-7.357-2.41-10.932-4.326a56.769 56.769 0 0 1-10.166-7.002c-1.954-1.467-4.058-3.18-6.315-5.14a248.81 248.81 0 0 1-6.671-6.077c-2.532-2.378-5.175-5.075-7.932-8.082-2.796-2.998-5.1-5.66-6.911-7.989-1.812-2.331-3.261-4.286-4.342-5.865-1.265-1.845-2.24-3.462-2.925-4.848a53.305 53.305 0 0 1-7.455-15.281c-1.043-3.45-1.666-6.89-1.875-10.328a35.477 35.477 0 0 1 .795-10.034 31.779 31.779 0 0 1 3.734-9.297c1.752-2.946 4.067-5.63 6.942-8.059l4.674-3.988a7.415 7.415 0 0 1 2.39-1.316 6.73 6.73 0 0 1 3.608-.176 5.83 5.83 0 0 1 3.07 1.758l16.77 18.034c.596.657 1.009 1.374 1.243 2.148.344 1.138.342 2.294-.009 3.47-.351 1.174-1.036 2.193-2.058 3.054l-9.248 7.886c-1.222 1.042-2.033 2.25-2.436 3.63-.4 1.38-.402 2.726-.005 4.039.302.998.79 1.87 1.467 2.616l28.366 30.64c1.104 1.176 2.353 1.898 3.754 2.165 1.398.267 2.806.172 4.219-.286.964-.312 1.885-.832 2.766-1.555l9.249-7.887a7.353 7.353 0 0 1 2.374-1.312 6.744 6.744 0 0 1 3.586-.168c1.222.268 2.258.842 3.104 1.727z" fill="#fff"/>
</svg>
