<svg xmlns="http://www.w3.org/2000/svg" width="84.74" height="84.74" viewBox="0 0 84.74 84.74">
  <defs>
    <style>
      .a{fill:#b61137}.b{fill:#8e2629}.c{fill:#fff}
    </style>
  </defs>
  <title>
    social-instagram
  </title>
  <circle class="a" cx="42.37" cy="42.37" r="42.37"/>
  <path class="b" d="M84.73 44.28L62.85 22.4l-22-.48-19.17 8.5 1.17 32.49 21.77 21.77a42.37 42.37 0 0 0 40.11-40.4z"/>
  <path class="c" d="M64.21 25.26q-.07-.2-.15-.4t-.28-.61a7.55 7.55 0 0 0-.9-1.37l-.24-.27q-.24-.27-.51-.51a7.58 7.58 0 0 0-.64-.52l-.33-.23a7.51 7.51 0 0 0-4.1-1.21H27.67a7.53 7.53 0 0 0-5.82 2.75c-.13.16-.26.33-.37.5s-.26.39-.37.59a7.51 7.51 0 0 0-.46 1l-.12.32a7.53 7.53 0 0 0-.4 2.42v29.3a7.54 7.54 0 0 0 7.54 7.54h29.39a7.54 7.54 0 0 0 7.54-7.54V27.63a7.53 7.53 0 0 0-.39-2.37zm-13.41 1a2.19 2.19 0 0 1 2.18-2.18h4.33a2.19 2.19 0 0 1 2.18 2.18v4.38a2.19 2.19 0 0 1-2.18 2.18h-4.38a2.19 2.19 0 0 1-2.18-2.18v-4.38zM35.74 37.02a8.5 8.5 0 1 1-1.89 5.33 8.49 8.49 0 0 1 1.89-5.33zm25.91 20a4.6 4.6 0 0 1-4.6 4.6H27.67a4.6 4.6 0 0 1-4.6-4.6v-20h9.35a11.28 11.28 0 1 0 19.88 0h9.35v20z"/>
</svg>
