<svg xmlns="http://www.w3.org/2000/svg" height="201" width="198.603" viewBox="0 0 198.60257 201" id="Layer_1">
  <ellipse ry="100.5" rx="99.301" cy="100.5" cx="99.301" id="path873" fill="#8c8c8c" stroke-width="15.286"/>
  <path id="path939" d="M48.552 127.47L58.83 97.46c3.504-14.311 30.013-29.782 31.252-32.235l31.053-10.053 72.703 76.105c-21.579-22.589-.153-.18-.132.048-11.653 37.208-41.074 60.008-74.754 67.693-23.863-24.16-49.586-50.4-70.399-71.548zm72.234-43.649c-127.663 84.398-63.832 42.199 0 0z" fill="#666" stroke-width="5.178"/>
  <path id="path850" d="M112.141 138.14c-5.195-.809-9.842-3.862-12.55-8.246-2.83-4.578-3.5-10.055-1.849-15.102 2.176-6.655 7.786-11.364 14.72-12.355 1.193-.171 3.62-.168 4.856.006 6.412.9 11.894 5.345 14.167 11.488 1.13 3.055 1.395 6.523.746 9.773-.425 2.129-1.37 4.466-2.523 6.244-.232.357-.492.867-.578 1.134-.146.45-.283.605-2.02 2.277l-1.862 1.794-1.26.636c-1.53.774-2.09 1.016-3.384 1.46a19.888 19.888 0 0 1-3.646.897c-1.145.164-3.751.161-4.817-.005z" fill="#fff" stroke-width="1.325"/>
  <path id="path899" d="M59.612 127.213l-11.06.257c-4.236-53.985 32.506-74.48 72.582-72.298l-.372 11.835c-30.883-2.934-64.047 12.598-61.15 60.206z" fill="#fff"/>
  <path id="path960" d="M70.317 126.973c-.085-1.104-.111-4.793-.043-6.212-.232-27.753 24.114-45.222 50.11-42.337l.375.036v10.698c-11.593-.66-20.359 1.813-26.6 6.2-10.06 7.072-13.555 19.118-11.746 31.037.057.663.064.99.023 1.004-.034.013-2.766.03-6.072.038l-6.01.016z" fill="#fff" stroke-width=".914"/>
</svg>
