<svg xmlns="http://www.w3.org/2000/svg" width="84.738" height="84.738" viewBox="0 0 84.738 84.738">
  <title>
    social-youtube
  </title>
  <circle cx="42.369" cy="42.369" r="42.369" fill="#b61137"/>
  <path d="M83.732 51.534L55.196 22.998l-12.733-.38-3.183-4.6-6.228 18.685 8.783 6.566-18.457 22.948L41.891 84.73c.16 0 .318.012.478.012a42.377 42.377 0 0 0 41.363-33.208z" fill="#8e2629"/>
  <path d="M55.474 36.699h-2.63v-1.523c-1 1.143-1.842 1.72-2.763 1.72a1.653 1.653 0 0 1-1.651-1.07 5.569 5.569 0 0 1-.292-2.034V22.718h2.63v11.35a.509.509 0 0 0 .561.53 2.212 2.212 0 0 0 1.515-1.222V22.718h2.63v13.979M43.57 32.547c.138 1.384-.291 2.071-1.108 2.071s-1.245-.687-1.107-2.071v-5.536c-.138-1.384.291-2.033 1.107-2.033s1.247.649 1.109 2.033v5.536zm2.63-5.26a5.569 5.569 0 0 0-.83-3.322 3.489 3.489 0 0 0-2.907-1.348 3.314 3.314 0 0 0-2.907 1.348 5.552 5.552 0 0 0-.828 3.334v4.971a5.156 5.156 0 0 0 .8 3.211 3.664 3.664 0 0 0 2.941 1.458 3.7 3.7 0 0 0 2.962-1.458 5.223 5.223 0 0 0 .775-3.211v-4.983M35.819 29.087V36.7h-2.768v-7.613s-2.868-9.333-3.46-11.073h2.907l1.943 7.291 1.933-7.291h2.907l-3.46 11.073M41.3 68.567v-.014h-1.042v-.014h-.927v-.014h-.844v-.014h-.775v-.014h-.706v-.014h-.664v-.014h-.637v-.014h-.581v-.014h-.54v-.014h-.512v-.009h-.484v-.014h-.457v-.014h-.429v-.014h-.4v-.014h-.388v-.014h-.356v-.014h-.346v-.016h-.318v-.014h-.3v-.014h-.277v-.014h-.277v-.014h-.235v-.014h-.235v-.014h-.221v-.016h-.208v-.014h-.183v-.014h-.18v-.014h-.152v-.014h-.152v-.014h-.083v-.014h-.1v-.014h-.1v-.014h-.111v-.014h-.111v-.014h-.111v-.014h-.111v-.014h-.125v-.014h-.1v-.014h-.1v-.004h-.111v-.014h-.073v-.014h-.08v-.014h-.083v-.014h-.083v-.014h-.069v-.014h-.069v-.016h-.069v-.014h-.069v-.014h-.058v-.014h-.055v-.014h-.055v-.014h-.069v-.014h-.055v-.016h-.042v-.014h-.055v-.014h-.042v-.014h-.057v-.014h-.042v-.014h-.055v-.014h-.042v-.016h-.041v-.014h-.042v-.014h-.042v-.014h-.042v-.014h-.042v-.014h-.022v-.014h-.042v-.014h-.042v-.014h-.028v-.014h-.042v-.014h-.028v-.014h-.042v-.014h-.028v-.014h-.028v-.014h-.042v-.004h-.028v-.014h-.042v-.014h-.028v-.014h-.028v-.014h-.028v-.014h-.024v-.014h-.03v-.016H25.3v-.014h-.028v-.014h-.028v-.014h-.028v-.014h-.028v-.014h-.03v-.014h-.028v-.016h-.014v-.014h-.028v-.014h-.028v-.014h-.028v-.014h-.014v-.014h-.028v-.014h-.022v-.014h-.028v-.014h-.014v-.014h-.028v-.014h-.028v-.014h-.012v-.014h-.028v-.014h-.014v-.014h-.028v-.004h-.014v-.014h-.028v-.014h-.014v-.014h-.028v-.014h-.014v-.014h-.028v-.014h-.014v-.016h-.028v-.014h-.012v-.014h-.014v-.014h-.028v-.014h-.014v-.014h-.028v-.014h-.014v-.016h-.014v-.014h-.028v-.014h-.01v-.014h-.014v-.014h-.016v-.014h-.014v-.014h-.028v-.014h-.014v-.014h-.014v-.014h-.014v-.014h-.028v-.014h-.014v-.014h-.014v-.014h-.014v-.014h-.026v-.014h-.014v-.014h-.014v-.014h-.014v-.014h-.014v-.014h-.014v-.014h-.014v-.014h-.014v-.006h-.012v-.014h-.014v-.014h-.014v-.014h-.014v-.014h-.014v-.014h-.014v-.014h-.028v-.016h-.014v-.014h-.014v-.014h-.014v-.014h-.014v-.014h-.014v-.014h-.012v-.014h-.014v-.016h-.014v-.014h-.014v-.014h-.014v-.014h-.014v-.014h-.014v-.028h-.016v-.014h-.014v-.014h-.014v-.014h-.014v-.014h-.014v-.014h-.014v-.014h-.01v-.028h-.014v-.004h-.014v-.014h-.014v-.014h-.014v-.014h-.014v-.014h-.014v-.014h-.014v-.03h-.014v-.014h-.008v-.028h-.014v-.014h-.014v-.014h-.014v-.03h-.018v-.014h-.014v-.028h-.014v-.014h-.012v-.014h-.014v-.028h-.014v-.014h-.014v-.014h-.014v-.028h-.014v-.014h-.014v-.028h-.016v-.028h-.014v-.014h-.014v-.028h-.012v-.028h-.014v-.006h-.014v-.028h-.014v-.028h-.018v-.014h-.014v-.03h-.014v-.028h-.014v-.014h-.014v-.028h-.014v-.03h-.014v-.028h-.014v-.028h-.014v-.028h-.008v-.028h-.014v-.028h-.014v-.028h-.014v-.028h-.014v-.004h-.014v-.028h-.01v-.028h-.014v-.028h-.014v-.042h-.014v-.028h-.014v-.028h-.014v-.028h-.014v-.042h-.016v-.028h-.014v-.028h-.014v-.028h-.014v-.028h-.014v-.036h-.014v-.028h-.014v-.042h-.016v-.03h-.014v-.042h-.014v-.028h-.014v-.042h-.014v-.028h-.014v-.042h-.01v-.028h-.014v-.042h-.014v-.042h-.014v-.042h-.014v-.028h-.014v-.036h-.014v-.042h-.014v-.042h-.014v-.042h-.008v-.042h-.014v-.042h-.014v-.042h-.014v-.042h-.018v-.042h-.014v-.042h-.014v-.055h-.012v-.042h-.014v-.042h-.014v-.055h-.014v-.042h-.014v-.055h-.014v-.042h-.014v-.055h-.016v-.042h-.014v-.055h-.014V63.5h-.012v-.055h-.014v-.055h-.014v-.055h-.014v-.055h-.018v-.055h-.014v-.055h-.014v-.069h-.014v-.055h-.014v-.069h-.014v-.059h-.014v-.069h-.014v-.069h-.014v-.069h-.008v-.069h-.014v-.083h-.014v-.069h-.014v-.083h-.014v-.1h-.014v-.111h-.01v-.125h-.014v-.125h-.014v-.125h-.014v-.125h-.014v-.138h-.014v-.125h-.014v-.152h-.016v-.138h-.014v-.138h-.014v-.152h-.014v-.152h-.014v-.152h-.014v-.166h-.014v-.165h-.016v-.166h-.01v-.18h-.014v-.18h-.014v-.194h-.014v-.194h-.014v-.208h-.014v-.221h-.014v-.221h-.014v-.249h-.014v-.249h-.014v-.3h-.014v-.318h-.014v-.4h-.014v-.52h-.012v-5.066h.014v-.512h.014v-.4h.014v-.318h.014v-.291h.014v-.263h.014v-.25h.014v-.221h.014v-.221h.014v-.208h.014v-.194h.014v-.194h.014v-.18h.014v-.166h.008v-.18h.014v-.166h.014v-.152h.014v-.166h.014v-.152h.014v-.138h.014v-.152h.016v-.138h.014v-.138h.014v-.134h.014v-.138h.014v-.125h.014v-.125h.014v-.125h.016v-.125h.014v-.111h.014v-.1h.014V45.7h.014v-.082h.014v-.069h.014v-.083h.014v-.069h.014v-.069h.014v-.055h.014v-.069h.014v-.069h.014v-.055h.014v-.055h.014v-.069h.004v-.055h.014v-.055h.014v-.055h.014v-.055h.014v-.055h.014v-.063h.014v-.042h.016v-.055h.014v-.055h.014v-.042h.014v-.055h.014v-.042h.014v-.055h.014v-.042h.016v-.042h.014v-.042h.014v-.042h.014v-.055h.014v-.031h.014v-.042h.014v-.042h.016v-.042h.014v-.042h.014v-.042h.014v-.028h.014v-.042h.014v-.042h.014v-.042h.014v-.042h.014v-.028h.014v-.042h.014v-.024h.014v-.042h.014v-.042h.014v-.028h.014v-.042h.004v-.028h.014v-.042h.014v-.028H23v-.028h.014v-.028h.014v-.042h.014v-.028h.016v-.022h.014v-.028h.014v-.042h.014v-.03h.014v-.028h.014v-.028h.014v-.028h.016v-.028h.014v-.028h.014v-.028h.014v-.032h.014v-.028h.014v-.028h.014v-.028h.014v-.028h.014v-.028h.014v-.028h.014v-.028h.014v-.004h.014v-.028h.014v-.028h.014v-.014h.004v-.03h.014v-.028h.014v-.014h.014v-.028h.014v-.03h.014v-.014h.014v-.028h.016v-.028h.014v-.014h.014v-.028h.014v-.014h.014v-.028h.014v-.014h.014v-.014h.016v-.018h.014v-.014h.014v-.028h.014v-.014h.014v-.014h.014v-.03h.014v-.014h.016v-.028h.014v-.014h.014v-.014h.014v-.03h.014v-.014h.014v-.014h.014v-.014h.014v-.014h.014v-.014h.014v-.014h.014v-.014h.014v-.028h.014v-.014h.014v-.014h.014v-.014h.004v-.014h.014v-.014h.014v-.014h.014v-.028h.014v-.014h.014v-.014h.014v-.014h.016v-.014h.028v-.006H24v-.014h.014v-.014h.014v-.014h.014v-.014h.016v-.014h.014v-.014h.014v-.016h.014v-.014h.014v-.014h.014v-.014h.014v-.014h.014v-.014h.014v-.014h.014v-.016h.014v-.014h.014v-.014h.014v-.014h.014v-.014h.014v-.014h.028v-.014h.014v-.014h.014v-.014h.014v-.014h.014v-.014h.02v-.014h.014v-.014h.014v-.014h.014v-.014h.014v-.004h.014v-.014h.03v-.014h.014v-.014h.014v-.014h.014v-.014h.014v-.014h.028v-.016h.014v-.014h.014v-.014h.028v-.014h.014v-.014h.028v-.014h.014v-.014h.014v-.016h.028v-.014h.014v-.014h.014v-.014h.028v-.014h.006v-.014h.028v-.014h.014v-.014h.014v-.014h.028v-.014h.016v-.014h.028v-.014h.028v-.014h.014v-.014h.03v-.014h.014v-.014H25v-.014h.028v-.014h.014v-.014h.028v-.014h.014v-.014h.028v-.014h.028v-.006h.018v-.014h.014v-.014h.028v-.014h.028v-.014h.03v-.014h.028v-.014h.028v-.016h.014v-.014h.03v-.014h.028v-.014h.028v-.014h.028v-.014h.028v-.014h.042v-.016h.028v-.014h.028v-.014h.028v-.014h.028v-.014h.028v-.014h.042v-.014h.028v-.014h.028v-.014h.042v-.014h.042v-.014h.024v-.014h.042v-.014h.028v-.014h.042v-.014h.028v-.004h.042v-.014h.055v-.014h.042v-.014h.042v-.014h.042v-.014h.037v-.014h.042v-.016h.055v-.014h.055v-.014h.042v-.014h.055v-.014h.051v-.014h.055v-.014h.069v-.016h.055v-.014h.069v-.014h.069v-.014h.083v-.014h.069v-.014h.1v-.014h.1v-.014h.1v-.014h.111v-.014h.12v-.014h.138v-.014h.138v-.014h.138v-.014h.152v-.014h.194v-.004h.208v-.014h.208v-.014h.224v-.014h.221v-.014h.249v-.014h.23v-.014h.249v-.016h.263v-.014h.277v-.014h.291v-.014h.291v-.014h.318v-.014h.318v-.014h.332v-.016h.36v-.014h.374v-.014h.388v-.014h.415v-.014h.443v-.014h.471v-.014h.51v-.016h.54v-.014h.581v-.014h.651v-.014h.72v-.014h.83v-.014h.983v-.014h1.3v-.014h3.945v.014h1.287v.014h.983v.014h.83v.014h.72v.014h.651v.014h.6v.014h.54v.014h.5v.014h.471v.014h.443v.014h.415v.014h.4v.014h.36v.014h.36v.014h.346v.014h.318v.014h.3v.014h.3v.014h.277v.014h.277v.014h.272v.014h.249v.014h.251v.014h.235v.014h.221v.014h.221v.014h.223v.02h.194v.014h.206v.014h.152v.014h.125v.014h.152v.014h.125v.014h.125v.014h.111v.014h.11v.014h.083v.014h.1v.014h.069v.014h.083v.014h.083v.014h.055v.014h.069v.014h.055v.014h.069v.014h.034v.014h.055v.014h.055v.014h.055v.014h.042v.014h.055v.014h.042v.014h.042v.014h.042v.014h.042v.014h.042v.014h.042v.014h.042v.014h.028v.014h.042v.014h.028v.014h.042v.014h.028v.014h.042v.014h.034v.014h.028v.014h.028v.014h.028v.014h.028v.014h.042v.014h.028v.014h.028v.014h.028v.014h.028v.014h.034v.014h.028v.014h.028v.014h.028v.014h.028v.014h.028v.014h.014v.014h.028v.014h.018v.014h.028v.014h.028v.014h.028v.014h.016v.014h.028v.014h.028v.014h.014v.014h.03v.014h.014v.014h.028v.014h.028v.014h.014v.014h.028v.014h.014v.014h.028v.014h.014v.014h.028v.014h.004v.014h.028v.014h.014v.014h.028v.014h.014v.014h.016v.014h.028v.014h.014v.014h.014v.014h.028v.014h.016v.014h.028v.014h.014v.014h.014v.014h.028v.014h.016v.014h.014v.014h.014v.014h.028v.014h.014v.014h.014v.014h.014v.014h.014v.014h.028v.014h.014v.014h.014v.014h.014v.014h.014v.014h.004v.014h.028v.014h.014v.014h.014v.014h.014v.014h.014v.014h.016v.014h.014v.014h.014v.014h.028v.014h.014v.014h.014v.014h.016v.014h.014v.014h.014v.014H61v.014h.014v.014h.014v.014h.014v.014h.014v.014h.014v.014h.014v.014h.014v.014h.014v.014h.014v.014h.014v.014h.014v.014h.004v.014h.014v.014h.014v.014h.014v.028h.014v.014h.014v.014h.014v.014h.016v.014h.014v.014h.014v.014h.014v.014h.014v.028h.014v.014h.014v.014h.016v-.016h.014v.014h.014v.028h.014v.014h.014v.014h.014v.028h.014v.014h.014v.028h.014v.014h.014v.014h.014v.028h.014v.014h.014v.014h.014v.028h.014v.014h.014v.028h.014v.014h.014v.028h.014v.014h.014v.028h.014v.028h.014v.014h.006v.028h.014v.028h.014v.014h.014v.028h.014v.028h.014v.014h.014v.028h.016v.028h.014v.028h.014v.028h.014v.014h.014v.028h.014v.028h.014v.028h.016v.028h.014v.028h.014v.028h.014v.028h.014v.028h.014v.028h.014v.028h.014v.028h.014v.042h.014v.028h.014v.028h.014v.028h.014v.028h.014v.042h.014v.028h.004v.028h.014v.028h.014v.042h.014v.028h.014v.042h.014v.042h.014v.028h.016v.042h.014v.028h.014v.042h.014v.028h.014v.042h.014v.042h.014v.042h.016v.028h.014v.042h.014v.042h.014v.042h.014v.042h.014v.042h.014v.042h.014v.042h.014v.042h.014v.042h.014v.055h.014v.042h.014v.042h.014v.042h.014v.055h.014v.055h.014v.042h.014v.055h.014v.042h.014v.055h.014v.055h.014v.055h.006v.055h.014v.042h.014v.055h.014v.069h.014v.055h.014v.055h.014v.069h.016v.055h.014v.069h.014v.055h.014v.069h.014v.069h.014v.069h.014v.083h.016v.069h.014v.083h.014v.083h.014v.111h.014v.111h.014v.125h.014v.125h.014v.138h.014v.125h.014v.138h.014v.138h.014v.138h.014v.138h.014v.152h.014v.152h.004v.152h.014v.166h.014v.152H63v.18h.014v.166h.014v.18h.014v.194h.016v.194h.014v.194h.014v.221h.014v.221h.014v.235h.014v.263h.014v.277h.016v.3h.014v.374h.014v.429h.014v5.55h-.014v.415h-.014v.374h-.014v.3h-.014v.291h-.016v.249h-.014v.249H63.1v.208h-.014v.221h-.014v.194h-.014v.194h-.014v.194h-.014v.18h-.014v.18h-.014v.166h-.014v.166h-.014v.152h-.016v.152h-.01v.152h-.014v.152h-.014v.138h-.014v.138h-.014v.152h-.014v.125h-.014v.138h-.014v.125h-.014v.125h-.014v.125h-.014v.125h-.014v.1h-.014v.083h-.012v.083h-.01v.083h-.014v.069h-.014v.069h-.014v.069h-.014v.069h-.014v.069h-.014v.055h-.016v.069h-.014v.055h-.014v.055h-.014v.069h-.014v.055h-.014v.055h-.014v.055h-.016v.055h-.014v.055h-.014v.055h-.014v.042h-.014v.055h-.014v.042h-.014v.055h-.014v.042h-.014v.055h-.014v.042h-.014v.042h-.01v.052h-.014v.042h-.014v.042h-.014v.042h-.014v.042h-.014v.055h-.014v.028h-.014v.042h-.014v.042h-.014v.042h-.014v.042h-.01v.042h-.014v.042h-.016v.028h-.014v.042H62.2v.042h-.014v.028h-.014v.042h-.014v.028h-.014v.042h-.014v.028h-.014v.042h-.014v.028h-.014v.042h-.014v.028h-.016v.028h-.01v.042h-.014v.028h-.014v.028h-.014v.028h-.014v.042h-.014v.028h-.014v.028h-.014v.028h-.014v.028h-.014v.028h-.014v.028h-.014v.028h-.014v.028h-.012v.028h-.01v.028h-.014v.028h-.014v.028h-.014v.028h-.014v.028h-.014v.028h-.014v.028h-.016v.014h-.014v.028h-.014v.028h-.014v.014h-.014v.028h-.014v.028h-.014v.014h-.016v.028h-.014v.028h-.014v.014h-.014v.028h-.014v.028h-.014v.014h-.014v.028h-.014v.014h-.014v.014h-.014v.028h-.014v.014h-.01v.028h-.014v.014h-.014v.014h-.014v.028h-.014v.014h-.014v.028h-.014v.014h-.014v.014h-.012v.028h-.014v.014h-.014v.014h-.012v.014h-.014v.028h-.016v.014h-.014v.014H61.3v.014h-.014v.014h-.014v.014h-.014v.014h-.014v.014h-.014v.028h-.012v.014h-.014v.014h-.014v.014h-.014v.014h-.018v.014h-.01v.014h-.014v.014h-.014v.014h-.014v.014h-.014v.014h-.014v.014h-.014v.014h-.014v.014h-.012v.014h-.014v.014h-.014v.014h-.014v.014h-.014v.014h-.014v.014h-.01v.014h-.014v.014h-.014v.014h-.014v.014h-.014v.014h-.014v.014h-.014v.014h-.016v.014h-.028v.014h-.014v.014h-.014v.014h-.014v.014h-.014v.014h-.016v.014h-.028v.014h-.014v.014h-.014v.014h-.014v.014h-.01v.014h-.028v.014h-.014v.014h-.014v.014h-.014v.014h-.014v.014h-.014v.014h-.022v.014h-.014v.014h-.014v.014h-.032v.014h-.014v.014h-.014v-.023h-.028v.014h-.014v.014H60.4v.014h-.014v.014h-.014v.014h-.028v.014h-.014v.014h-.012v.014h-.028v.014h-.014v.014h-.018v.014h-.028v.014h-.028v.014h-.014v.014h-.028v.014h-.014v.014h-.028v.014h-.028v.014h-.014v.014h-.018v.014h-.014v.014h-.028v.014h-.028v.014h-.014v.014h-.028v.014h-.028v.014h-.014v.014h-.028v.014h-.028v.014h-.028v.014h-.028v.014h-.028v.014h-.028v.014h-.014v.014h-.028v.014h-.028v.014h-.028v.014h-.028v.014h-.042v.014h-.028v.014h-.028v.014h-.028v.014h-.026v.014h-.028v.014h-.042v.014h-.03v.014h-.028v.014h-.042v.014h-.028v.014h-.042v.014h-.042v.014h-.018v.014h-.042v.014h-.028v.014h-.042v.014h-.042v.014h-.046v.014h-.042v.014h-.038v.014h-.055v.014h-.042v.014h-.042v.014h-.055v.014h-.055v.014h-.041v.014h-.055v.014h-.069v.014h-.056v.014h-.069v.014h-.055v.014h-.069v.014h-.083v.006h-.074v.014h-.1v.014h-.083v.014h-.1v.014h-.111v.014h-.125v.014h-.138v.014h-.138v.014h-.138v.014H57v.014h-.194v.014h-.208v.014h-.208v.014h-.221v.014h-.211v.014h-.235v.014h-.235v.014h-.25v.014h-.263v.014h-.263v.014h-.277v.014h-.291v.014h-.3v.014h-.3v.014h-.332v.014h-.354v.014h-.36v.014h-.374v.014h-.388v.014h-.429v.014h-.443v.014h-.471v.014h-.5v.014h-.535v.014h-.581v.014h-.639v.014h-.706v.014h-.789v.014h-.927v.014h-1.158v.014" fill="#fff"/>
  <path d="M54.779 52.83c0-1.294.355-1.646 1.192-1.646s1.161.384 1.161 1.664v1.511h-2.353v-1.531zm4.988 3.6V53.6a5.426 5.426 0 0 0-.815-3.259 3.507 3.507 0 0 0-2.957-1.447 3.59 3.59 0 0 0-3 1.447 5.563 5.563 0 0 0-.843 3.32v4.844a5.118 5.118 0 0 0 .874 3.191 3.587 3.587 0 0 0 3.033 1.417 3.466 3.466 0 0 0 3.031-1.5 3.569 3.569 0 0 0 .586-1.5 15.719 15.719 0 0 0 .089-1.63v-.392h-2.63c0 1.005 0 1.6-.019 1.74a1.077 1.077 0 0 1-1.119 1.005c-.86 0-1.223-.643-1.215-1.92V56.43h4.988M47.858 58.926c0 1.384-.326 1.915-1.049 1.915a1.929 1.929 0 0 1-1.307-.631v-8.394a1.947 1.947 0 0 1 1.3-.631c.723 0 1.049.406 1.049 1.79v5.952zm.292-10.049a3.584 3.584 0 0 0-2.648 1.563v-6.047h-2.491V62.94h2.491v-1.393a3.56 3.56 0 0 0 2.641 1.572 2.055 2.055 0 0 0 2.061-1.562 10.644 10.644 0 0 0 .277-2.768v-5.536a9.707 9.707 0 0 0-.335-2.762 2.029 2.029 0 0 0-2-1.612M40.938 62.94h-2.63v-1.522c-1 1.143-1.842 1.72-2.763 1.72a1.653 1.653 0 0 1-1.651-1.07 5.569 5.569 0 0 1-.292-2.034V49.1h2.63v11.211a.509.509 0 0 0 .561.53 2.212 2.212 0 0 0 1.515-1.222V49.1h2.63v13.841" fill="#8e2629"/>
  <path d="M30.973 62.94h-2.768V47.018h-2.907v-2.627h8.72v2.627h-3.045v15.917" fill="#8e2629"/>
</svg>
