<svg xmlns="http://www.w3.org/2000/svg" width="84.74" height="84.74" viewBox="0 0 84.74 84.74">
  <defs>
    <style>
      .a{fill:#b61137}.b{fill:#8e2629}.c{fill:#fff}
    </style>
  </defs>
  <title>
    social-twitter
  </title>
  <circle class="a" cx="42.37" cy="42.37" r="42.37"/>
  <path class="b" d="M84.05 49.93L62.39 28.27 35.9 57.96l-15.77 2.63L44.24 84.7a42.37 42.37 0 0 0 39.81-34.77z"/>
  <path class="c" d="M63.78 31.69a18.12 18.12 0 0 1-5.21 1.43 9.09 9.09 0 0 0 4-5 18.12 18.12 0 0 1-5.76 2.2 9.07 9.07 0 0 0-15.44 8.27 25.73 25.73 0 0 1-18.68-9.47 9.07 9.07 0 0 0 2.81 12.1 9 9 0 0 1-4.11-1.13v.11a9.07 9.07 0 0 0 7.27 8.89 9.12 9.12 0 0 1-4.09.16 9.07 9.07 0 0 0 8.47 6.29 18.19 18.19 0 0 1-11.26 3.88 18.55 18.55 0 0 1-2.16-.13 25.66 25.66 0 0 0 13.9 4.07c16.67 0 25.79-13.81 25.79-25.79V36.4a18.46 18.46 0 0 0 4.52-4.69"/>
</svg>
