<svg xmlns="http://www.w3.org/2000/svg" width="709.476" height="748.571" viewBox="0 0 187.715 198.06">
  <g transform="translate(382.988 231.98)">
    <ellipse cx="-289.25" cy="-132.951" rx="93.738" ry="99.03" fill="#f9a825"/>
    <path d="M-252.35-196.127l57.014 56.437c2.065 64.201-46.787 111.917-105.86 105.001l-48.828-47.4-.557-34.895 60.545 2.823-18.662-16.998 17.806-18.801-18.822-17.546c-1.715-13.345 7.808-23 20.787-23.487l16.398 16.975z" fill="#cb983c"/>
    <path d="M-350.024-82.088l-.557-34.896 9.652-1.67c3.413-.736 6.312-1.795 15.035-4.084 6.19-2.119 15.76.571 22.83 4.27 4.941 3.135 15.919 3.284 24.13 4.083 8.884 5.484 1.798 12.138-2.042 13.735-5.603.784-9.742 2.409-20.046.372l-5.94-.743-3.155 1.485c7.385 3.866 16.874 7.115 25.243 5.568 18.287-2.7 30.422-12.588 46.032-19.303 4.798-4.048 14.215 3.167 8.91 10.394-17.391 14.504-48.271 28.173-60.696 27.842-19.693-1.185-28.97-5.099-43.99-10.023-1.269.171-5.17-1.45-15.406 2.97z" fill="#fffffb"/>
    <path d="M-270.382-113.086c2.238 3.713 4.007 7.425 1.856 11.137l30.44-15.591c-.191-4.168-4.223-4.845-9.837-4.084-7.53.585-14.47 5.242-21.531 8.167z" fill="#fffffb"/>
    <text y="-132.204" x="-314.558" style="line-height:1.25" font-weight="400" font-size="10.583" font-family="sans-serif" letter-spacing="0" word-spacing="0" stroke-width=".265">
      <tspan style="-inkscape-font-specification:'Lucida Sans Semi-Bold'" y="-130" x="-316" font-weight="600" font-size="90" font-family="Lucida Sans" fill="#fff">%</tspan>
    </text>
  </g>
  <g transform="translate(392.29 231.98)">
    <ellipse cx="-298.433" cy="530.903" rx="93.738" ry="99.03" fill="#f9a825"/>
    <path d="M-281.692 472.752l75.558 75.563c-4.949 48.36-51.003 85.098-100.202 81.377l-45.844-45.204 60.957-4.877c16.645.362 18.352 3.548-8.509-22.951z" fill="#cb983c"/>
    <path d="M-281.692 472.752v49.475h15.634l-33.674 34.433-32.472-35.101h16.036l1.202-48.807z" fill="#fff"/>
    <path d="M-353.241 552.434l15.925-.315v19.485l75.38-.834v-18.65l14.156.314-.354 32.997-104.046-.943z" fill="#fff"/>
  </g>
  <g transform="translate(-11.976 847.84)">
    <ellipse cx="105.833" cy="135.226" rx="93.738" ry="99.03" fill="#f9a825"/>
    <path d="M155.828 83.638l43.36 45.392c4.037 58.62-40.565 103.065-87.645 104.967l-50.919-50.68c15.042 7.177 12.679 6.783 95.204 7.357z" fill="#cb983c"/>
    <path d="M75.666 190.494c-6.09-.624-11.922-3.475-15.487-7.571-2.085-2.396-3.235-4.532-4.163-7.728l-.501-1.73-.055-44.913-.055-44.914h61.816v23.3c0 12.816.064 23.298.142 23.293.079-.004 2.665-2.93 5.748-6.504 3.083-3.573 5.66-6.497 5.73-6.497.068 0 2.68 2.946 5.805 6.546l5.682 6.546.048-23.342.048-23.342h15.404v107.036l-39.416-.022c-21.678-.012-40.014-.083-40.746-.158zm64.757-23.286v-3.377l-34.756.042-34.756.042-.051 3.334-.052 3.335h69.615zm0-13.338v-3.376H70.816v3.266c0 1.796.057 3.315.127 3.376.07.06 15.731.11 34.803.11h34.677zm-.044-13.38l.052-3.334H70.816v3.266c0 1.796.058 3.315.128 3.376.07.06 15.71.091 34.755.068l34.629-.041zm-38.563-13.38v-3.293h-31v6.587h31zm0-13.421v-3.377l-15.452.042-15.453.043-.051 3.334-.052 3.335h31.008zm0-13.337v-3.376h-31v3.266c0 1.796.057 3.315.127 3.376.07.06 7.045.11 15.5.11h15.373z" fill="#fff"/>
  </g>
  <g transform="translate(389.2 231.98)">
    <ellipse cx="-295.342" cy="306.978" rx="93.738" ry="99.03" fill="#f9a825"/>
    <path d="M-248.538 267.086l46.325 46.682c-1.3 43.997-36.594 94.218-98.133 92.667l-38.889-38.416 35.1-23.25 9.533-12.394z" fill="#cb983c"/>
    <ellipse ry="50.716" rx="58.351" cy="297.545" cx="-295.592" fill="#fff"/>
    <path d="M-288.53 284.524l17.676-.079.118 15.238c-.449 8.971-6.103 14.003-14.332 17.087l-3.858-6.614c3.471-2.19 7.961-2.788 8.268-9.922h-7.717zm-29.32.079l17.677-.079.118 15.238c-.449 8.971-6.103 14.003-14.332 17.087l-3.858-6.614c3.471-2.19 7.961-2.788 8.268-9.922h-7.717z" fill="#cb983c"/>
    <path d="M-329.83 336.54l31.671 9.982c-7.625 10.812-20.667 16.31-41.076 21.497 4.462-10.303 11.59-20.226 9.405-31.478z" fill="#fff"/>
  </g>
  <g transform="translate(385.724 231.98)">
    <text y="86.65" x="-328.896" style="line-height:1.25;-inkscape-font-specification:'Berlin Sans FB Demi'" font-weight="400" font-size="50.8" font-family="Berlin Sans FB Demi" letter-spacing="0" word-spacing="0" fill="#fff" stroke-width=".265">
      <tspan style="-inkscape-font-specification:'Berlin Sans FB Demi'" y="86.65" x="-328.896" font-size="86.078">$</tspan>
    </text>
    <ellipse cx="-291.866" cy="88.193" rx="93.738" ry="99.03" fill="#f9a825"/>
    <path d="M-232.17 73.645l32.243 31.835c-6.524 41.04-35.552 75.223-81.88 81.627l-44.116-43.628 52.875-23.275 5.19-53.539z" fill="#cb983c"/>
    <path d="M-256.467 143.624l-69.722-.145-.31-69.266-25.064-.198 59.857-56.805 59.536 56.435-25.063.03z" fill="#fff"/>
    <text y="116.425" x="-315.698" style="line-height:1.25;-inkscape-font-specification:'Franklin Gothic Demi'" font-weight="400" font-size="10.583" font-family="Franklin Gothic Demi" letter-spacing="0" word-spacing="0" fill="#cb983c" stroke-width=".265">
      <tspan style="-inkscape-font-specification:'Franklin Gothic Demi'" y="116.425" x="-315.698" font-size="86.078">$</tspan>
    </text>
  </g>
</svg>
