<?xml version="1.0" encoding="UTF-8" standalone="no"?><!DOCTYPE svg PUBLIC "-//W3C//DTD SVG 1.1//EN" "http://www.w3.org/Graphics/SVG/1.1/DTD/svg11.dtd"><svg width="100%" height="100%" viewBox="0 0 928 284" version="1.1" xmlns="http://www.w3.org/2000/svg" xmlns:xlink="http://www.w3.org/1999/xlink" xml:space="preserve" xmlns:serif="http://www.serif.com/" style="fill-rule:evenodd;clip-rule:evenodd;stroke-linejoin:round;stroke-miterlimit:2;"><g><path d="M88.042,166.835c-5.222,-8.776 -16.61,-11.668 -25.387,-6.448c-8.775,5.223 -11.666,16.611 -6.444,25.388c5.22,8.774 16.61,11.668 25.385,6.448c8.775,-5.223 11.668,-16.61 6.446,-25.388Z" style="fill:#fff;fill-rule:nonzero;"/><path d="M84.287,234.105c-3.987,-6.706 -12.688,-8.913 -19.394,-4.923c-6.708,3.99 -8.917,12.688 -4.926,19.392c3.987,6.706 12.686,8.915 19.394,4.924c6.707,-3.989 8.915,-12.687 4.926,-19.393Z" style="fill:#fff;fill-rule:nonzero;"/><path d="M88.044,101.802c-5.222,-8.775 -16.611,-11.668 -25.387,-6.446c-8.779,5.222 -11.668,16.608 -6.446,25.386c5.221,8.776 16.608,11.671 25.387,6.446c8.774,-5.221 11.668,-16.609 6.446,-25.386Z" style="fill:#fff;fill-rule:nonzero;"/><path d="M84.287,39.001c-3.987,-6.706 -12.688,-8.913 -19.394,-4.925c-6.706,3.99 -8.917,12.69 -4.926,19.396c3.988,6.704 12.688,8.913 19.394,4.923c6.704,-3.99 8.914,-12.688 4.926,-19.394Z" style="fill:#fff;fill-rule:nonzero;"/><path d="M153.399,130.493c-6.454,-10.847 -20.526,-14.422 -31.376,-7.969c-10.847,6.456 -14.421,20.53 -7.967,31.375c6.454,10.849 20.526,14.425 31.374,7.97c10.849,-6.454 14.423,-20.528 7.969,-31.376Z" style="fill:#fff;fill-rule:nonzero;"/><path d="M149.645,197.762c-5.222,-8.777 -16.61,-11.668 -25.386,-6.448c-8.779,5.224 -11.669,16.609 -6.447,25.387c5.222,8.777 16.608,11.67 25.387,6.448c8.775,-5.222 11.668,-16.61 6.446,-25.387Z" style="fill:#fff;fill-rule:nonzero;"/><path d="M145.89,262.619c-3.992,-6.71 -12.692,-8.917 -19.4,-4.927c-6.702,3.987 -8.913,12.687 -4.921,19.395c3.988,6.706 12.688,8.915 19.392,4.925c6.706,-3.989 8.917,-12.687 4.929,-19.393Z" style="fill:#fff;fill-rule:nonzero;"/><path d="M149.644,67.695c-5.222,-8.777 -16.61,-11.668 -25.385,-6.448c-8.777,5.222 -11.668,16.61 -6.446,25.387c5.22,8.775 16.61,11.668 25.385,6.446c8.775,-5.22 11.668,-16.608 6.446,-25.385Z" style="fill:#fff;fill-rule:nonzero;"/><path d="M145.889,7.308c-3.988,-6.706 -12.689,-8.914 -19.394,-4.925c-6.706,3.99 -8.917,12.69 -4.927,19.394c3.989,6.706 12.688,8.915 19.396,4.925c6.703,-3.99 8.914,-12.688 4.925,-19.394Z" style="fill:#fff;fill-rule:nonzero;"/><path d="M26.307,200.764c-3.988,-6.706 -12.689,-8.913 -19.394,-4.925c-6.706,3.99 -8.916,12.69 -4.927,19.394c3.99,6.71 12.692,8.919 19.398,4.929c6.704,-3.99 8.915,-12.688 4.923,-19.398Z" style="fill:#fff;fill-rule:nonzero;"/><path d="M26.309,138.145c-3.99,-6.708 -12.692,-8.917 -19.398,-4.929c-6.708,3.992 -8.913,12.693 -4.923,19.399c3.988,6.705 12.686,8.914 19.394,4.925c6.704,-3.991 8.915,-12.689 4.927,-19.395Z" style="fill:#fff;fill-rule:nonzero;"/><path d="M26.308,75.524c-3.988,-6.706 -12.69,-8.913 -19.398,-4.923c-6.702,3.988 -8.912,12.688 -4.923,19.392c3.988,6.706 12.688,8.915 19.392,4.927c6.707,-3.992 8.918,-12.69 4.929,-19.396Z" style="fill:#fff;fill-rule:nonzero;"/><path d="M179.645,117.56c5.222,8.774 16.61,11.667 25.386,6.445c8.776,-5.219 11.667,-16.608 6.445,-25.384c-5.22,-8.775 -16.61,-11.668 -25.385,-6.448c-8.775,5.222 -11.668,16.61 -6.446,25.387Z" style="fill:#fff;fill-rule:nonzero;"/><path d="M183.399,50.29c3.988,6.707 12.69,8.914 19.394,4.923c6.708,-3.989 8.917,-12.688 4.927,-19.391c-3.988,-6.706 -12.686,-8.915 -19.394,-4.926c-6.706,3.991 -8.915,12.688 -4.927,19.394Z" style="fill:#fff;fill-rule:nonzero;"/><path d="M179.643,182.593c5.223,8.778 16.61,11.668 25.387,6.447c8.778,-5.222 11.669,-16.609 6.446,-25.385c-5.222,-8.778 -16.608,-11.669 -25.386,-6.448c-8.776,5.221 -11.669,16.609 -6.447,25.386Z" style="fill:#fff;fill-rule:nonzero;"/><path d="M183.4,245.395c3.988,6.706 12.689,8.913 19.394,4.925c6.705,-3.99 8.917,-12.691 4.927,-19.394c-3.988,-6.706 -12.688,-8.915 -19.394,-4.926c-6.708,3.991 -8.916,12.689 -4.927,19.395Z" style="fill:#fff;fill-rule:nonzero;"/><path d="M241.38,83.632c3.988,6.706 12.689,8.912 19.393,4.925c6.707,-3.99 8.918,-12.69 4.928,-19.394c-3.99,-6.71 -12.692,-8.919 -19.398,-4.929c-6.704,3.99 -8.915,12.688 -4.923,19.398Z" style="fill:#fff;fill-rule:nonzero;"/><path d="M241.378,146.249c3.99,6.708 12.692,8.917 19.398,4.93c6.708,-3.992 8.913,-12.692 4.923,-19.398c-3.988,-6.706 -12.686,-8.915 -19.394,-4.925c-6.707,3.99 -8.915,12.688 -4.927,19.393Z" style="fill:#fff;fill-rule:nonzero;"/><path d="M241.379,208.872c3.988,6.706 12.689,8.913 19.398,4.922c6.702,-3.988 8.913,-12.688 4.923,-19.392c-3.989,-6.706 -12.688,-8.915 -19.393,-4.927c-6.706,3.992 -8.917,12.69 -4.928,19.397Z" style="fill:#fff;fill-rule:nonzero;"/><path d="M892.173,39.774c10.874,0 19.689,-8.815 19.689,-19.689c0,-10.872 -8.815,-19.689 -19.689,-19.689c-10.874,0 -19.689,8.817 -19.689,19.689c0,10.874 8.815,19.689 19.689,19.689Z" style="fill:#fff;fill-rule:nonzero;"/><path d="M861.589,199.898l0.574,-0.009l-0.576,-0.014l0.002,0.023Z" style="fill:#fff;fill-rule:nonzero;"/><path d="M898.997,61.376l-39.453,10.23l0.877,6.43l19.58,-2.923l0,115.432l-18.038,2.188l1.383,0.15l-0.584,6.991l31.266,-0.56l33.024,0.585l0.584,-7.016l-19.873,-2.338l0,-129.751l-8.766,0.582Z" style="fill:#fff;fill-rule:nonzero;"/><path d="M709.336,199.898l0.579,-0.009l-0.581,-0.014l0.002,0.023Z" style="fill:#fff;fill-rule:nonzero;"/><path d="M861.963,192.732l-19.951,-2.187l0,-87.085c0,-31.855 -6.43,-45.005 -38.284,-45.005l-48.219,30.686l-0.877,-28.055l-7.89,0.29l-39.451,10.229l0.875,6.722l19.873,-3.216l0,115.434l-18.176,2.203l1.228,0.136l-0.582,6.993l31.851,-0.564l27.468,0.585l0.586,-7.014l-14.905,-2.339l0,-92.929l9.937,-5.846c10.812,-7.014 19.58,-12.566 29.807,-12.566c12.276,0 18.704,5.844 18.704,22.794l0,88.547l-14.319,2.339l0.875,7.014l28.349,-0.585l32.725,0.564l-0.874,-6.993l1.25,-0.152Z" style="fill:#fff;fill-rule:nonzero;"/><path d="M862.163,199.888l0.599,0.01l0.001,-0.022l-0.6,0.012Z" style="fill:#fff;fill-rule:nonzero;"/><path d="M861.963,192.732l-1.25,0.152l0.874,6.993l0.576,0.01l0.599,-0.01l0.582,-6.993l-1.381,-0.152Z" style="fill:#fff;fill-rule:nonzero;"/><path d="M861.963,192.732l-1.25,0.152l0.874,6.993l0.576,0.01l0.599,-0.01l0.582,-6.993l-1.381,-0.152Z" style="fill:#fff;fill-rule:nonzero;"/><path d="M709.863,192.748l-20.105,-2.203l0,-85.918c0,-32.144 -6.428,-46.172 -38.283,-46.172l-45.882,30.686c-1.754,-21.042 -12.565,-30.686 -37.699,-30.686l-45.588,30.391l-0.585,-27.762l-8.183,0.292l-39.158,10.23l0.876,6.721l19.871,-3.216l0,115.434l-19.286,2.339l0.585,7.013l32.438,-0.583l27.47,0.583l0.584,-7.013l-14.32,-2.339l0,-92.638l9.644,-6.43c9.06,-6.136 19.288,-12.272 28.641,-12.272c11.103,0 17.24,5.844 17.24,22.792l0,88.548l-13.442,2.339l0.583,7.013l27.764,-0.583l26.009,0.583l0.877,-7.013l-13.735,-2.339l0,-92.638l9.645,-6.43c9.057,-6.136 19.285,-12.272 28.345,-12.272c11.397,0 17.535,5.844 17.535,22.792l0,88.548l-14.32,2.339l0.877,7.013l28.638,-0.583l32.436,0.562l-0.584,-6.992l1.112,-0.136Z" style="fill:#fff;fill-rule:nonzero;"/><path d="M709.916,199.888l0.591,0.01l0.002,-0.022l-0.593,0.012Z" style="fill:#fff;fill-rule:nonzero;"/><path d="M709.863,192.748l-1.112,0.136l0.584,6.992l0.582,0.012l0.592,-0.012l0.583,-6.992l-1.229,-0.136Z" style="fill:#fff;fill-rule:nonzero;"/><path d="M709.863,192.748l-1.112,0.136l0.584,6.992l0.582,0.012l0.592,-0.012l0.583,-6.992l-1.229,-0.136Z" style="fill:#fff;fill-rule:nonzero;"/><path d="M409.503,58.455c-43.543,8.767 -71.598,31.271 -71.598,75.981c0,40.038 26.302,69.552 63.708,69.552c43.836,-8.18 71.598,-31.268 71.598,-75.982c0,-40.034 -26.009,-69.551 -63.708,-69.551Zm-0.292,135.013c-24.548,0 -41.499,-28.638 -41.499,-66.923c0,-34.775 11.69,-57.569 34.192,-57.569c23.966,0 41.791,25.424 41.791,66.921c0,34.191 -11.981,57.571 -34.484,57.571Z" style="fill:#fff;fill-rule:nonzero;"/><path d="M336.719,283.558l10.592,-38.067l4.194,0l10.648,38.067l-4.966,0l-2.152,-8.717l-11.199,0l-2.152,8.717l-4.965,0Zm8.496,-13.019l8.386,0l-4.193,-16.994l-4.193,16.994Z" style="fill:#fff;fill-rule:nonzero;"/><path d="M381.516,279.42c-1.324,3.201 -4.193,4.579 -7.779,4.579c-6.62,0 -9.655,-4.854 -9.655,-12.468l0,-3.64c0,-7.835 3.642,-12.358 9.655,-12.358c3.31,0 6.179,1.432 7.779,4.247l-3.365,2.317c-1.049,-1.711 -2.483,-2.594 -4.414,-2.594c-3.531,0 -5.241,3.201 -5.241,8.388l0,3.64c0,4.745 1.269,8.497 5.241,8.497c1.986,0 3.31,-0.718 4.524,-2.87l3.255,2.262Z" style="fill:#fff;fill-rule:nonzero;"/><path d="M392.108,267.615l4.358,0l0,-3.2c0,-3.808 -1.103,-4.8 -4.247,-4.8c-2.648,0 -3.698,0.385 -4.801,2.647l-3.365,-2.15c1.545,-3.2 3.861,-4.579 8.22,-4.579c5.682,0 8.607,2.26 8.607,8.882l0,19.143l-4.414,0l0,-2.703c-0.827,1.875 -2.04,3.144 -5.131,3.144c-5.075,0 -7.834,-3.144 -7.834,-8.496c0,-5.958 3.587,-7.888 8.607,-7.888Zm4.358,3.751l-4.082,0c-3.255,0 -4.47,1.489 -4.47,4.248c0,3.09 1.6,4.303 4.139,4.303c2.373,0 4.413,-0.773 4.413,-6.952l0,-1.599Z" style="fill:#fff;fill-rule:nonzero;"/><path d="M419.802,245.491l4.414,0l0,38.067l-4.414,0l0,-2.427c-1.103,1.821 -2.648,2.868 -5.627,2.868c-5.848,0 -8.662,-5.295 -8.662,-12.468l0,-3.641c0,-7.89 3.476,-12.357 8.662,-12.357c2.923,0 4.633,1.323 5.627,3.199l0,-13.241Zm0,26.04l0,-4.028c0,-4.964 -1.875,-8 -4.911,-8c-3.309,0 -4.964,3.146 -4.964,8.387l0,3.641c0,4.689 1.489,8.497 4.964,8.497c3.642,0 4.911,-3.752 4.911,-8.497Z" style="fill:#fff;fill-rule:nonzero;"/><path d="M446.283,279.42c-1.491,3.255 -3.974,4.579 -7.89,4.579c-6.344,0 -9.545,-4.799 -9.545,-12.468l0,-3.64c0,-7.835 3.145,-12.358 8.828,-12.358c6.014,0 8.882,3.805 8.882,12.358l0,2.867l-13.296,0l0,0.773c0,4.745 1.324,8.497 5.076,8.497c2.648,0 3.587,-1.048 4.69,-2.87l3.255,2.262Zm-13.021,-12.523l8.882,0c0,-5.737 -1.323,-7.394 -4.468,-7.394c-3.366,0 -4.414,2.484 -4.414,7.394Z" style="fill:#fff;fill-rule:nonzero;"/><path d="M451.743,255.973l4.414,0l0,2.703c0.827,-1.599 2.482,-3.144 5.296,-3.144c2.869,0 5.241,1.324 6.455,4.358c1.434,-3.034 3.641,-4.358 6.455,-4.358c4.469,0 7.724,3.64 7.724,10.812l0,17.215l-4.414,0l0,-17.159c0,-5.351 -1.931,-6.786 -4.248,-6.786c-2.483,0 -4.304,2.096 -4.304,6.73l0,17.215l-4.413,0l0,-17.159c0,-5.351 -1.931,-6.786 -4.248,-6.786c-2.538,0 -4.303,2.319 -4.303,6.73l0,17.215l-4.414,0l0,-27.586Z" style="fill:#fff;fill-rule:nonzero;"/><path d="M488.264,245.491l4.855,0l0,4.966l-4.855,0l0,-4.966Zm0.221,10.482l4.414,0l0,27.586l-4.414,0l0,-27.586Z" style="fill:#fff;fill-rule:nonzero;"/><path d="M515.628,279.42c-1.324,3.201 -4.193,4.579 -7.779,4.579c-6.621,0 -9.655,-4.854 -9.655,-12.468l0,-3.64c0,-7.835 3.641,-12.358 9.655,-12.358c3.31,0 6.179,1.432 7.779,4.247l-3.365,2.317c-1.049,-1.711 -2.483,-2.594 -4.414,-2.594c-3.531,0 -5.241,3.201 -5.241,8.388l0,3.64c0,4.745 1.269,8.497 5.241,8.497c1.986,0 3.31,-0.718 4.524,-2.87l3.255,2.262Z" style="fill:#fff;fill-rule:nonzero;"/><path d="M546.521,253.711c-1.49,-2.538 -3.089,-4.358 -6.73,-4.358c-3.256,0 -5.187,2.206 -5.187,5.958c0,4.139 1.931,5.739 6.621,7.062c5.848,1.655 9.49,4.689 9.49,10.979c0,4.965 -2.703,10.647 -10.428,10.647c-5.021,0 -8.662,-2.096 -10.979,-6.233l3.752,-2.539c2.041,2.924 3.751,4.47 7.227,4.47c4.744,0 5.737,-3.201 5.737,-6.125c0,-3.309 -1.048,-5.573 -6.675,-7.116c-5.683,-1.546 -9.49,-4.799 -9.49,-11.145c0,-5.296 3.035,-10.262 10.041,-10.262c4.911,0 8,2.042 10.207,6.235l-3.586,2.427Z" style="fill:#fff;fill-rule:nonzero;"/><path d="M572.064,279.42c-1.49,3.255 -3.971,4.579 -7.888,4.579c-6.345,0 -9.545,-4.799 -9.545,-12.468l0,-3.64c0,-7.835 3.144,-12.358 8.827,-12.358c6.013,0 8.883,3.805 8.883,12.358l0,2.867l-13.297,0l0,0.773c0,4.745 1.324,8.497 5.076,8.497c2.647,0 3.586,-1.048 4.689,-2.87l3.255,2.262Zm-13.02,-12.523l8.883,0c0,-5.737 -1.325,-7.394 -4.469,-7.394c-3.365,0 -4.414,2.484 -4.414,7.394Z" style="fill:#fff;fill-rule:nonzero;"/><path d="M585.028,267.615l4.359,0l0,-3.2c0,-3.808 -1.104,-4.8 -4.249,-4.8c-2.648,0 -3.696,0.385 -4.8,2.647l-3.365,-2.15c1.545,-3.2 3.862,-4.579 8.221,-4.579c5.682,0 8.607,2.26 8.607,8.882l0,19.143l-4.414,0l0,-2.703c-0.828,1.875 -2.041,3.144 -5.132,3.144c-5.075,0 -7.834,-3.144 -7.834,-8.496c0,-5.958 3.586,-7.888 8.607,-7.888Zm4.359,3.751l-4.082,0c-3.255,0 -4.47,1.489 -4.47,4.248c0,3.09 1.6,4.303 4.138,4.303c2.373,0 4.414,-0.773 4.414,-6.952l0,-1.599Z" style="fill:#fff;fill-rule:nonzero;"/><path d="M611.454,261.877c-0.939,-1.599 -1.932,-2.262 -3.422,-2.262c-2.481,0 -4.082,2.096 -4.082,6.676l0,17.267l-4.414,0l0,-27.586l4.414,0l0,2.704c0.827,-1.764 2.482,-3.143 5.021,-3.143c2.592,0 4.523,1.267 5.903,3.751l-3.42,2.593Z" style="fill:#fff;fill-rule:nonzero;"/><path d="M633.631,279.42c-1.325,3.201 -4.193,4.579 -7.779,4.579c-6.621,0 -9.655,-4.854 -9.655,-12.468l0,-3.64c0,-7.835 3.641,-12.358 9.655,-12.358c3.31,0 6.179,1.432 7.779,4.247l-3.367,2.317c-1.047,-1.711 -2.481,-2.594 -4.412,-2.594c-3.531,0 -5.242,3.201 -5.242,8.388l0,3.64c0,4.745 1.27,8.497 5.242,8.497c1.986,0 3.31,-0.718 4.524,-2.87l3.255,2.262Z" style="fill:#fff;fill-rule:nonzero;"/><path d="M637.16,245.491l4.469,0l0,13.185c0.828,-1.654 2.648,-3.143 5.407,-3.143c4.469,0 7.834,3.088 7.834,10.812l0,17.213l-4.413,0l0,-17.158c0,-5.57 -1.876,-6.785 -4.249,-6.785c-3.255,0 -4.634,2.592 -4.634,6.73l0,17.213l-4.414,0l0,-38.067Z" style="fill:#fff;fill-rule:nonzero;"/><path d="M691.556,245.491l0,4.302l-8.937,0l0,33.765l-4.744,0l0,-33.765l-8.882,0l0,-4.302l22.563,0Z" style="fill:#fff;fill-rule:nonzero;"/><path d="M709.486,271.531c0,7.89 -3.365,12.468 -9.323,12.468c-5.958,0 -9.269,-4.578 -9.269,-12.468l0,-3.641c0,-7.89 3.311,-12.358 9.269,-12.358c5.958,0 9.323,4.468 9.323,12.358l0,3.641Zm-4.414,0l0,-3.641c0,-5.186 -1.102,-8.386 -4.909,-8.386c-3.807,0 -4.855,3.2 -4.855,8.386l0,3.641c0,4.744 1.048,8.496 4.855,8.496c3.807,0 4.909,-3.752 4.909,-8.496Z" style="fill:#fff;fill-rule:nonzero;"/><path d="M731.607,271.531c0,7.89 -3.365,12.468 -9.323,12.468c-5.959,0 -9.269,-4.578 -9.269,-12.468l0,-3.641c0,-7.89 3.31,-12.358 9.269,-12.358c5.958,0 9.323,4.468 9.323,12.358l0,3.641Zm-4.414,0l0,-3.641c0,-5.186 -1.102,-8.386 -4.909,-8.386c-3.807,0 -4.854,3.2 -4.854,8.386l0,3.641c0,4.744 1.047,8.496 4.854,8.496c3.807,0 4.909,-3.752 4.909,-8.496Z" style="fill:#fff;fill-rule:nonzero;"/><path d="M736.242,245.491l4.413,0l0,28.467c0,2.98 -0.11,5.517 3.421,5.517l0,4.083c-5.959,0 -7.834,-2.759 -7.834,-8.496l0,-29.571Z" style="fill:#fff;fill-rule:nonzero;"/></g></svg>