<?xml version="1.0" encoding="UTF-8" standalone="no"?><!DOCTYPE svg PUBLIC "-//W3C//DTD SVG 1.1//EN" "http://www.w3.org/Graphics/SVG/1.1/DTD/svg11.dtd"><svg width="100%" height="100%" viewBox="0 0 250 50" version="1.1" xmlns="http://www.w3.org/2000/svg" xmlns:xlink="http://www.w3.org/1999/xlink" xml:space="preserve" xmlns:serif="http://www.serif.com/" style="fill-rule:evenodd;clip-rule:evenodd;stroke-linejoin:round;stroke-miterlimit:2;"><g><path id="Omni" d="M148.716,27.307c-0.63,-1.082 -2.003,-1.439 -3.062,-0.795c-1.059,0.644 -1.408,2.048 -0.778,3.13c0.63,1.081 2.004,1.438 3.063,0.795c1.058,-0.644 1.407,-2.048 0.777,-3.13m-0.453,8.293c-0.481,-0.827 -1.53,-1.099 -2.339,-0.607c-0.81,0.492 -1.076,1.564 -0.595,2.391c0.481,0.826 1.531,1.099 2.34,0.607c0.809,-0.492 1.075,-1.564 0.594,-2.391m0.453,-16.311c-0.629,-1.082 -2.003,-1.438 -3.062,-0.795c-1.059,0.644 -1.408,2.048 -0.778,3.13c0.63,1.082 2.004,1.439 3.063,0.795c1.058,-0.644 1.407,-2.048 0.777,-3.13m-0.453,-7.742c-0.481,-0.827 -1.53,-1.099 -2.339,-0.607c-0.809,0.492 -1.076,1.564 -0.595,2.391c0.482,0.826 1.531,1.099 2.34,0.607c0.809,-0.492 1.075,-1.564 0.594,-2.391m8.338,11.279c-0.779,-1.337 -2.477,-1.778 -3.785,-0.982c-1.309,0.796 -1.74,2.531 -0.962,3.868c0.779,1.337 2.477,1.778 3.785,0.982c1.309,-0.795 1.74,-2.53 0.962,-3.868m-0.453,8.293c-0.63,-1.082 -2.004,-1.438 -3.063,-0.794c-1.059,0.644 -1.407,2.047 -0.777,3.129c0.629,1.082 2.003,1.439 3.062,0.795c1.059,-0.644 1.408,-2.047 0.778,-3.13m-0.453,7.996c-0.482,-0.827 -1.531,-1.099 -2.341,-0.607c-0.808,0.491 -1.075,1.564 -0.593,2.391c0.481,0.827 1.53,1.099 2.339,0.607c0.809,-0.492 1.076,-1.564 0.595,-2.391m0.453,-24.031c-0.63,-1.082 -2.004,-1.438 -3.063,-0.795c-1.059,0.644 -1.407,2.048 -0.777,3.13c0.629,1.082 2.003,1.439 3.062,0.795c1.059,-0.644 1.407,-2.048 0.778,-3.13m-0.453,-7.444c-0.482,-0.827 -1.531,-1.099 -2.34,-0.608c-0.809,0.492 -1.076,1.565 -0.594,2.391c0.481,0.827 1.53,1.099 2.339,0.608c0.809,-0.492 1.076,-1.565 0.595,-2.391m-14.426,23.85c-0.481,-0.827 -1.531,-1.099 -2.34,-0.608c-0.809,0.492 -1.075,1.565 -0.594,2.391c0.481,0.828 1.531,1.1 2.34,0.608c0.809,-0.492 1.075,-1.564 0.594,-2.391m0,-7.72c-0.481,-0.827 -1.531,-1.1 -2.34,-0.608c-0.809,0.492 -1.075,1.565 -0.594,2.392c0.481,0.826 1.531,1.099 2.34,0.607c0.808,-0.492 1.075,-1.565 0.594,-2.391m0,-7.72c-0.481,-0.827 -1.531,-1.099 -2.34,-0.607c-0.809,0.491 -1.075,1.564 -0.594,2.39c0.481,0.827 1.531,1.099 2.339,0.608c0.809,-0.492 1.076,-1.565 0.595,-2.391m18.498,5.182c0.63,1.082 2.003,1.438 3.062,0.794c1.059,-0.643 1.408,-2.047 0.778,-3.129c-0.63,-1.082 -2.004,-1.438 -3.063,-0.795c-1.058,0.644 -1.407,2.048 -0.777,3.13m0.453,-8.293c0.481,0.826 1.53,1.099 2.339,0.607c0.809,-0.492 1.076,-1.565 0.594,-2.391c-0.481,-0.827 -1.53,-1.099 -2.339,-0.607c-0.809,0.492 -1.076,1.564 -0.594,2.391m-0.454,16.31c0.631,1.083 2.004,1.439 3.063,0.795c1.059,-0.644 1.408,-2.047 0.778,-3.129c-0.63,-1.083 -2.004,-1.439 -3.063,-0.795c-1.059,0.643 -1.408,2.047 -0.778,3.129m0.454,7.743c0.481,0.827 1.53,1.099 2.339,0.607c0.809,-0.492 1.076,-1.565 0.595,-2.391c-0.481,-0.827 -1.531,-1.099 -2.34,-0.607c-0.809,0.492 -1.076,1.564 -0.594,2.391m6.994,-19.943c0.481,0.827 1.531,1.099 2.34,0.607c0.809,-0.492 1.075,-1.564 0.594,-2.391c-0.481,-0.827 -1.531,-1.099 -2.34,-0.607c-0.809,0.492 -1.076,1.564 -0.594,2.391m0,7.72c0.481,0.827 1.531,1.099 2.34,0.608c0.809,-0.493 1.075,-1.565 0.594,-2.392c-0.481,-0.827 -1.531,-1.099 -2.34,-0.607c-0.809,0.492 -1.075,1.564 -0.594,2.391m0,7.72c0.481,0.827 1.531,1.099 2.34,0.607c0.808,-0.492 1.075,-1.564 0.594,-2.391c-0.481,-0.827 -1.531,-1.099 -2.34,-0.607c-0.809,0.492 -1.075,1.564 -0.594,2.391m78.508,-20.847c1.312,0 2.375,-1.087 2.375,-2.427c0,-1.341 -1.063,-2.428 -2.375,-2.428c-1.312,0 -2.375,1.087 -2.375,2.428c0,1.34 1.063,2.427 2.375,2.427m-3.69,19.741l0.07,-0.001l-0.07,-0.002l0,0.003m4.513,-17.078l-4.759,1.262l0.106,0.792l2.362,-0.36l0,14.231l-2.176,0.269l0.166,0.019l-0.07,0.862l3.772,-0.069l3.984,0.072l0.07,-0.865l-2.397,-0.288l0,-15.996l-1.058,0.071m-22.879,17.078l0.069,-0.001l-0.07,-0.002l0.001,0.003m18.412,-0.884l-2.407,-0.269l0,-10.736c0,-3.928 -0.776,-5.549 -4.619,-5.549l-5.816,3.783l-0.106,-3.458l-0.952,0.035l-4.759,1.261l0.105,0.829l2.398,-0.396l0,14.231l-2.193,0.271l0.148,0.017l-0.07,0.862l3.842,-0.069l3.314,0.072l0.071,-0.865l-1.798,-0.288l0,-11.457l1.198,-0.721c1.305,-0.864 2.362,-1.549 3.596,-1.549c1.481,0 2.256,0.721 2.256,2.81l0,10.917l-1.727,0.288l0.106,0.865l3.419,-0.072l3.948,0.069l-0.105,-0.862l0.151,-0.019m0.024,0.883l0.072,0.001l0,-0.003l-0.072,0.002m-0.024,-0.883l-0.151,0.019l0.105,0.862l0.07,0.001l0.072,-0.001l0.07,-0.862l-0.166,-0.019m0,0l-0.151,0.019l0.105,0.862l0.07,0.001l0.072,-0.001l0.07,-0.862l-0.166,-0.019m-18.349,0.002l-2.425,-0.271l0,-10.593c0,-3.962 -0.776,-5.692 -4.618,-5.692l-5.535,3.783c-0.212,-2.594 -1.516,-3.783 -4.548,-3.783l-5.5,3.747l-0.07,-3.423l-0.987,0.036l-4.724,1.262l0.105,0.828l2.398,-0.396l0,14.231l-2.327,0.288l0.071,0.865l3.913,-0.072l3.314,0.072l0.07,-0.865l-1.727,-0.288l0,-11.421l1.163,-0.793c1.093,-0.756 2.327,-1.513 3.455,-1.513c1.339,0 2.08,0.721 2.08,2.81l0,10.917l-1.622,0.288l0.071,0.865l3.349,-0.072l3.137,0.072l0.106,-0.865l-1.657,-0.288l0,-11.421l1.164,-0.793c1.092,-0.756 2.326,-1.513 3.419,-1.513c1.375,0 2.116,0.721 2.116,2.81l0,10.917l-1.728,0.288l0.106,0.865l3.455,-0.072l3.912,0.069l-0.07,-0.862l0.134,-0.017m0.007,0.881l0.071,0.001l0,-0.003l-0.071,0.002m-0.007,-0.881l-0.134,0.017l0.07,0.862l0.071,0.002l0.071,-0.002l0.07,-0.862l-0.148,-0.017m0,0l-0.134,0.017l0.07,0.862l0.071,0.002l0.071,-0.002l0.07,-0.862l-0.148,-0.017m-36.234,-16.556c-5.252,1.081 -8.637,3.855 -8.637,9.367c0,4.936 3.173,8.575 7.686,8.575c5.288,-1.008 8.637,-3.855 8.637,-9.367c0,-4.936 -3.138,-8.575 -7.686,-8.575m-0.035,16.645c-2.961,0 -5.006,-3.531 -5.006,-8.25c0,-4.288 1.41,-7.098 4.125,-7.098c2.891,0 5.041,3.135 5.041,8.251c0,4.215 -1.445,7.097 -4.16,7.097" style="fill:#fff;fill-rule:nonzero;"/></g><g id="QUL"><path d="M9.991,14.09c-1.49,-0.442 -2.952,-0.975 -4.379,-1.597c-0.247,-0.099 -0.508,-0.156 -0.773,-0.169c-2.501,-0.168 -4.839,-2.052 -4.839,-5.753c0,-3.396 2.106,-5.953 5.415,-5.953c3.391,0 5.25,2.623 5.25,5.718c0,2.574 -1.168,4.391 -2.633,5.063l0,0.068c0.856,0.252 1.81,0.453 2.683,0.639l-0.724,1.984Zm-4.642,-3.802c1.679,0 2.667,-1.631 2.667,-3.851c0,-2.069 -0.955,-3.784 -2.667,-3.784c-1.711,0 -2.699,1.716 -2.699,3.834c-0.016,2.153 1.004,3.801 2.683,3.801l0.016,0Zm12.26,-9.485l0,6.525c0,1.952 0.724,2.944 2.008,2.944c1.317,0 2.041,-0.942 2.041,-2.944l0,-6.525l2.502,0l0,6.358c0,3.498 -1.728,5.163 -4.625,5.163c-2.798,0 -4.444,-1.581 -4.444,-5.197l0,-6.324l2.518,0Zm18.119,6.542l-4.082,0l0,2.692l4.559,0l0,2.102l-7.077,0l0,-11.336l6.847,0l0,2.102l-4.329,0l0,2.354l4.082,0l0,2.086Zm11.585,0l-4.082,0l0,2.692l4.56,0l0,2.102l-7.077,0l0,-11.336l6.846,0l0,2.102l-4.329,0l0,2.354l4.082,0l0,2.086Zm4.985,4.794l0,-11.336l2.93,0l2.304,4.154c0.686,1.253 1.291,2.551 1.81,3.885l0.05,0c-0.165,-1.497 -0.214,-3.028 -0.214,-4.743l0,-3.296l2.305,0l0,11.336l-2.634,0l-2.37,-4.373c-0.658,-1.212 -1.382,-2.675 -1.925,-4.003l-0.05,0.017c0.066,1.496 0.098,3.095 0.098,4.944l0,3.415l-2.304,0Zm16.816,-11.639c-0.511,1.631 -1.235,3.28 -1.975,4.541l-1.514,0.151c0.493,-1.446 0.921,-3.061 1.135,-4.541l2.354,-0.151Zm3.883,8.998c0.675,0.354 1.712,0.707 2.782,0.707c1.151,0 1.761,-0.489 1.761,-1.228c0,-0.707 -0.527,-1.111 -1.86,-1.598c-1.843,-0.656 -3.045,-1.699 -3.045,-3.347c0,-1.934 1.58,-3.414 4.197,-3.414c1.251,0 2.173,0.269 2.831,0.572l-0.56,2.069c-0.723,-0.358 -1.516,-0.543 -2.32,-0.539c-1.086,0 -1.613,0.505 -1.613,1.094c0,0.722 0.626,1.043 2.057,1.598c1.959,0.74 2.88,1.782 2.88,3.38c0,1.9 -1.431,3.532 -4.477,3.532c-1.267,0 -2.517,-0.353 -3.143,-0.707l0.51,-2.119Zm-70.484,10.187l0,6.525c0,1.952 0.723,2.944 2.004,2.944c1.315,0 2.037,-0.942 2.037,-2.944l0,-6.525l2.497,0l0,6.358c0,3.498 -1.724,5.163 -4.616,5.163c-2.792,0 -4.435,-1.581 -4.435,-5.197l0,-6.324l2.513,0Zm11.497,11.336l0,-11.336l2.924,0l2.3,4.154c0.685,1.253 1.288,2.551 1.807,3.885l0.05,0c-0.165,-1.497 -0.214,-3.027 -0.214,-4.743l0,-3.296l2.3,0l0,11.336l-2.629,0l-2.365,-4.373c-0.657,-1.211 -1.38,-2.674 -1.922,-4.003l-0.05,0.017c0.067,1.497 0.099,3.095 0.099,4.944l0,3.415l-2.3,0Zm14.126,-11.336l2.514,0l0,11.336l-2.514,0l0,-11.336Zm10.086,11.336l-3.549,-11.336l2.744,0l1.347,4.793c0.378,1.346 0.723,2.641 0.985,4.053l0.05,0c0.279,-1.348 0.614,-2.683 1.002,-4.002l1.413,-4.844l2.661,0l-3.729,11.336l-2.924,0Zm17.215,-4.794l-4.075,0l0,2.692l4.55,0l0,2.102l-7.063,0l0,-11.336l6.833,0l0,2.102l-4.32,0l0,2.355l4.075,0l0,2.085Zm4.975,-6.391c0.805,-0.134 2.005,-0.235 3.335,-0.235c1.642,0 2.793,0.251 3.58,0.891c0.658,0.538 1.019,1.329 1.019,2.372c0,1.447 -1.002,2.439 -1.954,2.792l0,0.051c0.772,0.318 1.199,1.075 1.478,2.118c0.345,1.278 0.69,2.759 0.903,3.196l-2.563,0c-0.18,-0.336 -0.442,-1.244 -0.772,-2.641c-0.295,-1.414 -0.772,-1.799 -1.791,-1.816l-0.755,0l0,4.456l-2.481,0l0,-11.184l0.001,0Zm2.48,4.878l0.985,0c1.249,0 1.988,-0.64 1.988,-1.632c0,-1.042 -0.689,-1.564 -1.839,-1.581c-0.608,0 -0.953,0.051 -1.134,0.084l0,3.129Zm10.135,3.666c0.674,0.354 1.708,0.707 2.777,0.707c1.149,0 1.757,-0.488 1.757,-1.228c0,-0.707 -0.526,-1.11 -1.857,-1.598c-1.839,-0.656 -3.038,-1.699 -3.038,-3.346c0,-1.935 1.577,-3.415 4.189,-3.415c1.248,0 2.168,0.269 2.825,0.572l-0.558,2.069c-0.721,-0.358 -1.514,-0.542 -2.316,-0.539c-1.084,0 -1.611,0.505 -1.611,1.094c0,0.723 0.624,1.043 2.054,1.598c1.954,0.74 2.875,1.783 2.875,3.38c0,1.901 -1.43,3.532 -4.468,3.532c-1.266,0 -2.514,-0.353 -3.138,-0.706l0.509,-2.12Zm11.58,-8.695l2.514,0l0,11.336l-2.514,0l0,-11.336Zm9.609,2.153l-2.973,0l0,-2.153l8.509,0l0,2.153l-3.022,0l0,9.183l-2.514,0l0,-9.183Zm12.168,9.183l0,-2.131l0,-2.511l-3.499,-6.694l2.859,0l1.134,2.725c0.345,0.824 0.574,1.429 0.854,2.169l0.033,0c0.246,-0.706 0.509,-1.362 0.837,-2.169l1.118,-2.725l2.809,0l-3.647,6.61l0,4.726l-2.498,0Zm-106.384,6.564l2.519,0l0,9.183l4.41,0l0,2.153l-6.929,0l0,-11.336Zm11.174,0l2.519,0l0,11.336l-2.519,0l0,-11.336Zm7.454,0.15c0.658,-0.134 1.991,-0.235 3.242,-0.235c1.531,0 2.47,0.151 3.276,0.64c0.773,0.42 1.333,1.194 1.333,2.22c0,1.009 -0.576,1.951 -1.827,2.422l0,0.033c1.267,0.353 2.205,1.329 2.205,2.792c0,1.027 -0.461,1.833 -1.152,2.406c-0.807,0.656 -2.156,1.026 -4.361,1.026c-1.235,0 -2.156,-0.085 -2.716,-0.169l0,-11.135Zm2.485,4.339l0.823,0c1.317,0 2.024,-0.554 2.024,-1.395c0,-0.858 -0.642,-1.312 -1.777,-1.312c-0.543,0 -0.857,0.034 -1.071,0.068l0,2.639l0.001,0Zm0,5.03c0.247,0.033 0.544,0.033 0.972,0.033c1.135,0 2.139,-0.453 2.139,-1.631c0,-1.143 -1.004,-1.597 -2.254,-1.597l-0.857,0l0,3.195Zm10.22,-9.368c0.806,-0.134 2.008,-0.235 3.341,-0.235c1.645,0 2.798,0.251 3.588,0.891c0.658,0.538 1.019,1.329 1.019,2.371c0,1.447 -1.004,2.44 -1.957,2.793l0,0.05c0.773,0.319 1.201,1.076 1.481,2.119c0.345,1.278 0.691,2.759 0.904,3.196l-2.567,0c-0.181,-0.337 -0.444,-1.245 -0.774,-2.641c-0.296,-1.414 -0.773,-1.799 -1.794,-1.817l-0.757,0l0,4.457l-2.485,0l0,-11.184l0.001,0Zm2.485,4.877l0.987,0c1.251,0 1.991,-0.639 1.991,-1.631c0,-1.043 -0.691,-1.564 -1.843,-1.581c-0.609,0 -0.954,0.051 -1.135,0.084l0,3.128Zm12.644,3.398l-0.789,2.91l-2.601,0l3.39,-11.337l3.292,0l3.44,11.337l-2.699,0l-0.856,-2.91l-3.177,0Zm2.815,-1.918l-0.692,-2.405c-0.197,-0.672 -0.395,-1.513 -0.559,-2.187l-0.033,0c-0.165,0.674 -0.33,1.531 -0.51,2.187l-0.659,2.405l2.453,0Zm8.194,-6.357c0.807,-0.134 2.009,-0.235 3.342,-0.235c1.644,0 2.797,0.251 3.587,0.891c0.658,0.538 1.02,1.329 1.02,2.371c0,1.447 -1.004,2.44 -1.958,2.793l0,0.05c0.774,0.319 1.201,1.076 1.481,2.119c0.346,1.278 0.691,2.759 0.905,3.196l-2.568,0c-0.181,-0.337 -0.443,-1.245 -0.773,-2.641c-0.296,-1.414 -0.774,-1.799 -1.795,-1.817l-0.757,0l0,4.457l-2.484,0l0,-11.184l0,0Zm2.485,4.877l0.988,0c1.25,0 1.991,-0.639 1.991,-1.631c0,-1.043 -0.691,-1.564 -1.843,-1.581c-0.609,0 -0.955,0.051 -1.136,0.084l0,3.128Zm12.326,6.308l0,-4.643l-3.505,-6.693l2.864,0l1.136,2.724c0.345,0.824 0.576,1.43 0.855,2.17l0.033,0c0.247,-0.707 0.51,-1.362 0.839,-2.17l1.12,-2.724l2.814,0l-3.654,6.61l0,4.726l-2.502,0Z" style="fill:#fff;fill-rule:nonzero;"/></g></svg>