<svg width="100%" height="100%" viewBox="0 0 928 284" version="1.1" xmlns="http://www.w3.org/2000/svg" xmlns:xlink="http://www.w3.org/1999/xlink" xml:space="preserve" xmlns:serif="http://www.serif.com/" style="fill-rule:evenodd;clip-rule:evenodd;stroke-linejoin:round;stroke-miterlimit:2;">

<g id="dots"><path d="M88.042,166.835c-5.222,-8.776 -16.61,-11.668 -25.387,-6.448c-8.775,5.223 -11.666,16.611 -6.444,25.388c5.22,8.774 16.61,11.668 25.385,6.448c8.775,-5.223 11.668,-16.61 6.446,-25.388Z" style="fill:#002f5e;fill-rule:nonzero;"/><path d="M84.287,234.105c-3.987,-6.706 -12.688,-8.913 -19.394,-4.923c-6.708,3.99 -8.917,12.688 -4.926,19.392c3.987,6.706 12.686,8.915 19.394,4.924c6.707,-3.989 8.915,-12.687 4.926,-19.393Z" style="fill:#002f5e;fill-rule:nonzero;"/><path d="M88.044,101.802c-5.222,-8.775 -16.611,-11.668 -25.387,-6.446c-8.779,5.222 -11.668,16.608 -6.446,25.386c5.221,8.776 16.608,11.671 25.387,6.446c8.774,-5.221 11.668,-16.609 6.446,-25.386Z" style="fill:#002f5e;fill-rule:nonzero;"/><path d="M84.287,39.001c-3.987,-6.706 -12.688,-8.913 -19.394,-4.925c-6.706,3.99 -8.917,12.69 -4.926,19.396c3.988,6.704 12.688,8.913 19.394,4.923c6.704,-3.99 8.914,-12.688 4.926,-19.394Z" style="fill:#002f5e;fill-rule:nonzero;"/><path d="M153.399,130.493c-6.454,-10.847 -20.526,-14.422 -31.376,-7.969c-10.847,6.456 -14.421,20.53 -7.967,31.375c6.454,10.849 20.526,14.425 31.374,7.97c10.849,-6.454 14.423,-20.528 7.969,-31.376Z" style="fill:#002f5e;fill-rule:nonzero;"/><path d="M149.645,197.762c-5.222,-8.777 -16.61,-11.668 -25.386,-6.448c-8.779,5.224 -11.669,16.609 -6.447,25.387c5.222,8.777 16.608,11.67 25.387,6.448c8.775,-5.222 11.668,-16.61 6.446,-25.387Z" style="fill:#002f5e;fill-rule:nonzero;"/><path d="M145.89,262.619c-3.992,-6.71 -12.692,-8.917 -19.4,-4.927c-6.702,3.987 -8.913,12.687 -4.921,19.395c3.988,6.706 12.688,8.915 19.392,4.925c6.706,-3.989 8.917,-12.687 4.929,-19.393Z" style="fill:#002f5e;fill-rule:nonzero;"/><path d="M149.644,67.695c-5.222,-8.777 -16.61,-11.668 -25.385,-6.448c-8.777,5.222 -11.668,16.61 -6.446,25.387c5.22,8.775 16.61,11.668 25.385,6.446c8.775,-5.22 11.668,-16.608 6.446,-25.385Z" style="fill:#002f5e;fill-rule:nonzero;"/><path d="M145.889,7.308c-3.988,-6.706 -12.689,-8.914 -19.394,-4.925c-6.706,3.99 -8.917,12.69 -4.927,19.394c3.989,6.706 12.688,8.915 19.396,4.925c6.703,-3.99 8.914,-12.688 4.925,-19.394Z" style="fill:#002f5e;fill-rule:nonzero;"/><path d="M26.307,200.764c-3.988,-6.706 -12.689,-8.913 -19.394,-4.925c-6.706,3.99 -8.916,12.69 -4.927,19.394c3.99,6.71 12.692,8.919 19.398,4.929c6.704,-3.99 8.915,-12.688 4.923,-19.398Z" style="fill:#002f5e;fill-rule:nonzero;"/><path d="M26.309,138.145c-3.99,-6.708 -12.692,-8.917 -19.398,-4.929c-6.708,3.992 -8.913,12.693 -4.923,19.399c3.988,6.705 12.686,8.914 19.394,4.925c6.704,-3.991 8.915,-12.689 4.927,-19.395Z" style="fill:#002f5e;fill-rule:nonzero;"/><path d="M26.308,75.524c-3.988,-6.706 -12.69,-8.913 -19.398,-4.923c-6.702,3.988 -8.912,12.688 -4.923,19.392c3.988,6.706 12.688,8.915 19.392,4.927c6.707,-3.992 8.918,-12.69 4.929,-19.396Z" style="fill:#002f5e;fill-rule:nonzero;"/><path d="M179.645,117.56c5.222,8.774 16.61,11.667 25.386,6.445c8.776,-5.219 11.667,-16.608 6.445,-25.384c-5.22,-8.775 -16.61,-11.668 -25.385,-6.448c-8.775,5.222 -11.668,16.61 -6.446,25.387Z" style="fill:#002f5e;fill-rule:nonzero;"/><path d="M183.399,50.29c3.988,6.707 12.69,8.914 19.394,4.923c6.708,-3.989 8.917,-12.688 4.927,-19.391c-3.988,-6.706 -12.686,-8.915 -19.394,-4.926c-6.706,3.991 -8.915,12.688 -4.927,19.394Z" style="fill:#002f5e;fill-rule:nonzero;"/><path d="M179.643,182.593c5.223,8.778 16.61,11.668 25.387,6.447c8.778,-5.222 11.669,-16.609 6.446,-25.385c-5.222,-8.778 -16.608,-11.669 -25.386,-6.448c-8.776,5.221 -11.669,16.609 -6.447,25.386Z" style="fill:#002f5e;fill-rule:nonzero;"/><path d="M183.4,245.395c3.988,6.706 12.689,8.913 19.394,4.925c6.705,-3.99 8.917,-12.691 4.927,-19.394c-3.988,-6.706 -12.688,-8.915 -19.394,-4.926c-6.708,3.991 -8.916,12.689 -4.927,19.395Z" style="fill:#002f5e;fill-rule:nonzero;"/><path d="M241.38,83.632c3.988,6.706 12.689,8.912 19.393,4.925c6.707,-3.99 8.918,-12.69 4.928,-19.394c-3.99,-6.71 -12.692,-8.919 -19.398,-4.929c-6.704,3.99 -8.915,12.688 -4.923,19.398Z" style="fill:#002f5e;fill-rule:nonzero;"/><path d="M241.378,146.249c3.99,6.708 12.692,8.917 19.398,4.93c6.708,-3.992 8.913,-12.692 4.923,-19.398c-3.988,-6.706 -12.686,-8.915 -19.394,-4.925c-6.707,3.99 -8.915,12.688 -4.927,19.393Z" style="fill:#002f5e;fill-rule:nonzero;"/><path d="M241.379,208.872c3.988,6.706 12.689,8.913 19.398,4.922c6.702,-3.988 8.913,-12.688 4.923,-19.392c-3.989,-6.706 -12.688,-8.915 -19.393,-4.927c-6.706,3.992 -8.917,12.69 -4.928,19.397Z" style="fill:#002f5e;fill-rule:nonzero;"/></g>

<g id="Omni"><path d="M892.173,39.774c10.874,0 19.689,-8.815 19.689,-19.689c0,-10.872 -8.815,-19.689 -19.689,-19.689c-10.874,0 -19.689,8.817 -19.689,19.689c0,10.874 8.815,19.689 19.689,19.689Z" style="fill:#002f5e;fill-rule:nonzero;"/><path d="M861.589,199.898l0.574,-0.009l-0.576,-0.014l0.002,0.023Z" style="fill:#002f5e;fill-rule:nonzero;"/><path d="M898.997,61.376l-39.453,10.23l0.877,6.43l19.58,-2.923l0,115.432l-18.038,2.188l1.383,0.15l-0.584,6.991l31.266,-0.56l33.024,0.585l0.584,-7.016l-19.873,-2.338l0,-129.751l-8.766,0.582Z" style="fill:#002f5e;fill-rule:nonzero;"/><path d="M709.336,199.898l0.579,-0.009l-0.581,-0.014l0.002,0.023Z" style="fill:#002f5e;fill-rule:nonzero;"/><path d="M861.963,192.732l-19.951,-2.187l0,-87.085c0,-31.855 -6.43,-45.005 -38.284,-45.005l-48.219,30.686l-0.877,-28.055l-7.89,0.29l-39.451,10.229l0.875,6.722l19.873,-3.216l0,115.434l-18.176,2.203l1.228,0.136l-0.582,6.993l31.851,-0.564l27.468,0.585l0.586,-7.014l-14.905,-2.339l0,-92.929l9.937,-5.846c10.812,-7.014 19.58,-12.566 29.807,-12.566c12.276,0 18.704,5.844 18.704,22.794l0,88.547l-14.319,2.339l0.875,7.014l28.349,-0.585l32.725,0.564l-0.874,-6.993l1.25,-0.152Z" style="fill:#002f5e;fill-rule:nonzero;"/><path d="M862.163,199.888l0.599,0.01l0.001,-0.022l-0.6,0.012Z" style="fill:#002f5e;fill-rule:nonzero;"/><path d="M861.963,192.732l-1.25,0.152l0.874,6.993l0.576,0.01l0.599,-0.01l0.582,-6.993l-1.381,-0.152Z" style="fill:#002f5e;fill-rule:nonzero;"/><path d="M861.963,192.732l-1.25,0.152l0.874,6.993l0.576,0.01l0.599,-0.01l0.582,-6.993l-1.381,-0.152Z" style="fill:#002f5e;fill-rule:nonzero;"/><path d="M709.863,192.748l-20.105,-2.203l0,-85.918c0,-32.144 -6.428,-46.172 -38.283,-46.172l-45.882,30.686c-1.754,-21.042 -12.565,-30.686 -37.699,-30.686l-45.588,30.391l-0.585,-27.762l-8.183,0.292l-39.158,10.23l0.876,6.721l19.871,-3.216l0,115.434l-19.286,2.339l0.585,7.013l32.438,-0.583l27.47,0.583l0.584,-7.013l-14.32,-2.339l0,-92.638l9.644,-6.43c9.06,-6.136 19.288,-12.272 28.641,-12.272c11.103,0 17.24,5.844 17.24,22.792l0,88.548l-13.442,2.339l0.583,7.013l27.764,-0.583l26.009,0.583l0.877,-7.013l-13.735,-2.339l0,-92.638l9.645,-6.43c9.057,-6.136 19.285,-12.272 28.345,-12.272c11.397,0 17.535,5.844 17.535,22.792l0,88.548l-14.32,2.339l0.877,7.013l28.638,-0.583l32.436,0.562l-0.584,-6.992l1.112,-0.136Z" style="fill:#002f5e;fill-rule:nonzero;"/><path d="M709.916,199.888l0.591,0.01l0.002,-0.022l-0.593,0.012Z" style="fill:#002f5e;fill-rule:nonzero;"/><path d="M709.863,192.748l-1.112,0.136l0.584,6.992l0.582,0.012l0.592,-0.012l0.583,-6.992l-1.229,-0.136Z" style="fill:#002f5e;fill-rule:nonzero;"/><path d="M709.863,192.748l-1.112,0.136l0.584,6.992l0.582,0.012l0.592,-0.012l0.583,-6.992l-1.229,-0.136Z" style="fill:#002f5e;fill-rule:nonzero;"/><path d="M409.503,58.455c-43.543,8.767 -71.598,31.271 -71.598,75.981c0,40.038 26.302,69.552 63.708,69.552c43.836,-8.18 71.598,-31.268 71.598,-75.982c0,-40.034 -26.009,-69.551 -63.708,-69.551Zm-0.292,135.013c-24.548,0 -41.499,-28.638 -41.499,-66.923c0,-34.775 11.69,-57.569 34.192,-57.569c23.966,0 41.791,25.424 41.791,66.921c0,34.191 -11.981,57.571 -34.484,57.571Z" style="fill:#002f5e;fill-rule:nonzero;"/></g>
</svg>