<svg xmlns="http://www.w3.org/2000/svg" xmlns:v="http://schemas.microsoft.com/visio/2003/SVGExtensions/" width="74.641" height="104.763" viewBox="0 0 55.9809 78.5722" color-interpolation-filters="sRGB" class="st9">
  <v:documentProperties v:langID="4105" v:metric="true" v:viewMarkup="false"/>
  <style>
    .st1{fill:#0070c0;stroke:#fff;stroke-width:5}.st1,.st2,.st3,.st4,.st5{stroke-linecap:round;stroke-linejoin:round}.st2{fill:none;stroke:none;stroke-width:5}.st3,.st4{stroke:#fff;stroke-width:3}.st4{stroke-width:5}.st5{stroke:#0070c0;stroke-width:3}.st6{fill:#0070c0;visibility:hidden}.st7{stroke:none;stroke-linecap:round;stroke-linejoin:round;stroke-width:5}.st8{fill:#fff}.st9{fill:none;fill-rule:evenodd;font-size:12px;overflow:visible;stroke-linecap:square;stroke-miterlimit:3}
  </style>
  <g v:mID="0" v:index="1" v:groupContext="foregroundPage">
    <title>
      Page-1
    </title>
    <v:pageProperties v:drawingScale=".039" v:pageScale=".039" v:drawingUnits="24" v:shadowOffsetX="8.504" v:shadowOffsetY="-8.504"/>
    <g id="group716-1" transform="translate(2.5 -22.404)" v:mID="716" v:groupContext="group">
      <title>
        Accessible Washroom Women
      </title>
      <g id="group717-2" v:mID="717" v:groupContext="group">
        <title>
          Accessible Washroom Male.618
        </title>
        <g id="shape718-3" v:mID="718" v:groupContext="shape">
          <title>
            Sheet.718
          </title>
          <rect y="24.904" width="50.981" height="53.668" rx="6.373" ry="6.373" class="st1"/>
        </g>
        <g id="shape719-5" v:mID="719" v:groupContext="shape">
          <title>
            Sheet.719
          </title>
          <v:custProps>
            <v:cp v:nameU="Text" v:lbl="Text" v:type="4" v:format="&lt;no master&gt;;" v:invis="false" v:langID="1033" v:val="VT4()"/>
            <v:cp v:nameU="ShapeClass" v:lbl="ShapeClass" v:type="0" v:invis="true" v:langID="1033" v:val="VT4(Annotation)"/>
            <v:cp v:nameU="ShapeType" v:lbl="ShapeType" v:type="0" v:invis="true" v:langID="1033" v:val="VT4(Points Of Interest)"/>
            <v:cp v:nameU="SubShapeType" v:lbl="SubShapeType" v:type="0" v:invis="true" v:langID="1033" v:val="VT4(Toilet)"/>
            <v:cp v:nameU="Text" v:type="0" v:format="Accessible Washroom Women;" v:invis="false" v:ask="false" v:langID="0" v:cal="0" v:val="VT0(0):26"/>
          </v:custProps>
          <v:userDefs>
            <v:ud v:nameU="SolSH" v:val="VT15({5D50005D-537C-4738-9C46-130C74335A6D}):41"/>
            <v:ud v:nameU="AntiScale" v:val="VT0(1):26"/>
            <v:ud v:nameU="HasText" v:val="VT0(0):5"/>
            <v:ud v:nameU="ShowBorder" v:val="VT0(1):5"/>
            <v:ud v:nameU="visLegendSymbolID" v:val="VT15({0513F907-0008-0000-8E40-00608CF305B2}):41"/>
            <v:ud v:nameU="ShapeClass" v:prompt="Annotation" v:val="VT0(1):26"/>
            <v:ud v:nameU="ShapeType" v:prompt="Points Of Interest" v:val="VT0(53):26"/>
            <v:ud v:nameU="SubShapeType" v:prompt="Toilet" v:val="VT0(87):26"/>
            <v:ud v:nameU="LastText" v:val="VT4()"/>
            <v:ud v:nameU="TextSync"/>
            <v:ud v:nameU="visVersion" v:val="VT0(15):26"/>
            <v:ud v:nameU="visLegendShape" v:val="VT0(2):26"/>
          </v:userDefs>
          <v:textBlock v:margins="rect(4,4,4,4)" v:tabSpace="42.52"/>
          <v:textRect cx="25.49" cy="89.774" width="10.72" height="22.404"/>
        </g>
        <g id="shape720-6" v:mID="720" v:groupContext="shape" transform="translate(20.392 -3.841)">
          <title>
            Sheet.720
          </title>
          <path class="st2" d="M0 46.434h29.263v32.138H0z"/>
        </g>
        <g id="shape721-8" v:mID="721" v:groupContext="shape" transform="translate(23.95 -8.661)">
          <title>
            Sheet.721
          </title>
          <path d="M14.9 70.91c0 4.35-3.36 7.66-7.55 7.66-3.99 0-7.35-3.31-7.35-7.66 0-4.15 3.36-7.46 7.35-7.46 4.19 0 7.55 3.31 7.55 7.46" class="st3"/>
        </g>
        <g id="shape722-11" v:mID="722" v:groupContext="shape" transform="translate(30.993 -23.268)">
          <title>
            Sheet.722
          </title>
          <path d="M0 72.66l4.76-2.96 4.98 4.55-1.87-1.59-3.93 4.77 1.86 1.14 3.94-4.32" class="st3"/>
        </g>
        <g id="shape723-14" v:mID="723" v:groupContext="shape" transform="translate(38.036 -12.347)">
          <title>
            Sheet.723
          </title>
          <path d="M0 70.38l6.2-.45-1.49 8.64" class="st3"/>
        </g>
        <g id="shape724-17" v:mID="724" v:groupContext="shape" transform="translate(43.422 -32.14)">
          <title>
            Sheet.724
          </title>
          <path d="M0 78.57h.21" class="st4"/>
        </g>
        <g id="shape725-20" v:mID="725" v:groupContext="shape" transform="translate(25.387 -5.487)">
          <title>
            Sheet.725
          </title>
          <path d="M0 60.02l15.13 18.55" class="st5"/>
        </g>
        <g id="shape726-23" v:mID="726" v:groupContext="shape" transform="translate(20.392 -3.841)">
          <title>
            Sheet.726
          </title>
          <path class="st6" d="M0 46.434h29.263v32.138H0z"/>
          <path class="st7" d="M0 46.434h29.263v32.138H0z"/>
        </g>
      </g>
      <g id="shape727-26" v:mID="727" v:groupContext="shape" transform="translate(6.089 -7.51)">
        <title>
          Accessible Washroom Female.504
        </title>
        <v:userDefs>
          <v:ud v:nameU="Shadow" v:val="VT0(0):5"/>
        </v:userDefs>
        <path d="M11.31 46.95H5.73a3.268 3.539-180 0 0-2.16 1.35 7.163 7.757-180 0 0-.96 2.41l-2.59 8.6a1.077 1.167-180 0 0 1.97.85l2.71-8.84a.557.603 0 0 1 1 .249L1.6 65.99h3.7V77.5a1.323 1.433-180 0 0 2.56 0V65.99h.89V77.5a1.33 1.44-180 0 0 2.56 0V65.99h3.9l-3.8-14.18a.62.672 0 0 1 1.017-.39l2.323 8.53a1.208 1.308-180 0 0 2.23-.85l-2.65-8.88a4.1 4.44-180 0 0-.72-1.67 4.06 4.396-180 0 0-2.3-1.6zm.13-4.09a2.775 2.937-180 1 0-5.55 0 2.775 2.937-180 1 0 5.55 0z" class="st8"/>
      </g>
    </g>
  </g>
</svg>
