<svg xmlns="http://www.w3.org/2000/svg" xmlns:v="http://schemas.microsoft.com/visio/2003/SVGExtensions/" width="74.641" height="104.763" viewBox="0 0 55.9809 78.5722" color-interpolation-filters="sRGB" class="st10">
  <v:documentProperties v:langID="4105" v:metric="true" v:viewMarkup="false"/>
  <style>
    .st1{fill:#0070c0;stroke:#fff;stroke-linecap:round;stroke-linejoin:round;stroke-width:5}.st2{fill:#fff}.st3,.st4,.st5,.st6,.st7{stroke-linecap:round;stroke-linejoin:round}.st3{fill:none;stroke:none;stroke-width:5}.st4,.st5,.st6,.st7{stroke:#fff;stroke-width:3.25}.st5,.st6,.st7{stroke-width:3}.st6,.st7{stroke-width:5}.st7{stroke:#0070c0;stroke-width:3}.st8{fill:#0070c0;visibility:hidden}.st9{stroke:none;stroke-linecap:round;stroke-linejoin:round;stroke-width:5}.st10{fill:none;fill-rule:evenodd;font-size:12px;overflow:visible;stroke-linecap:square;stroke-miterlimit:3}
  </style>
  <g v:mID="0" v:index="1" v:groupContext="foregroundPage">
    <title>
      Page-1
    </title>
    <v:pageProperties v:drawingScale=".039" v:pageScale=".039" v:drawingUnits="24" v:shadowOffsetX="8.504" v:shadowOffsetY="-8.504"/>
    <g id="group705-1" transform="translate(2.5 -22.404)" v:mID="705" v:groupContext="group">
      <title>
        Accessible Washroom Men
      </title>
      <g id="shape706-2" v:mID="706" v:groupContext="shape">
        <title>
          Sheet.706
        </title>
        <rect y="24.904" width="50.981" height="53.668" rx="6.373" ry="6.373" class="st1"/>
      </g>
      <g id="shape707-4" v:mID="707" v:groupContext="shape" transform="translate(7.647 -7.31)">
        <title>
          Sheet.707
        </title>
        <v:userDefs>
          <v:ud v:nameU="Shadow" v:val="VT0(0):5"/>
        </v:userDefs>
        <path d="M10.48 43.04a3.118 3.054-180 1 0-6.24 0 3.118 3.054-180 1 0 6.24 0zm.8 4.16H3.81A3.627 3.595-180 0 0 0 50.76v10.53a1.186 1.175-180 0 0 2.36 0l.03-9.06a.544.539 0 1 1 1.088 0l.002 24.8a1.652 1.637-180 0 0 3.3 0V62.58a.75.742 0 0 1 1.124 0L7.9 77.03a1.672 1.657-180 0 0 3.34 0V52.2a.568.563 0 1 1 1.124 0l-.004 9.09a1.222 1.211-180 0 0 2.43 0V50.76a3.465 3.434-180 0 0-3.51-3.56z" class="st2"/>
      </g>
      <g id="shape708-7" v:mID="708" v:groupContext="shape">
        <title>
          Sheet.708
        </title>
        <v:custProps>
          <v:cp v:nameU="Text" v:lbl="Text" v:type="4" v:format="&lt;no master&gt;;" v:invis="false" v:langID="1033" v:val="VT4()"/>
          <v:cp v:nameU="ShapeClass" v:lbl="ShapeClass" v:type="0" v:invis="true" v:langID="1033" v:val="VT4(Annotation)"/>
          <v:cp v:nameU="ShapeType" v:lbl="ShapeType" v:type="0" v:invis="true" v:langID="1033" v:val="VT4(Points Of Interest)"/>
          <v:cp v:nameU="SubShapeType" v:lbl="SubShapeType" v:type="0" v:invis="true" v:langID="1033" v:val="VT4(Toilet)"/>
          <v:cp v:nameU="Text" v:type="0" v:format="Accessible Washroom Men;" v:invis="false" v:ask="false" v:langID="0" v:cal="0" v:val="VT0(0):26"/>
        </v:custProps>
        <v:userDefs>
          <v:ud v:nameU="SolSH" v:val="VT15({5D50005D-537C-4738-9C46-130C74335A6D}):41"/>
          <v:ud v:nameU="AntiScale" v:val="VT0(1):26"/>
          <v:ud v:nameU="HasText" v:val="VT0(0):5"/>
          <v:ud v:nameU="ShowBorder" v:val="VT0(1):5"/>
          <v:ud v:nameU="visLegendSymbolID" v:val="VT15({0513F907-0008-0000-8E40-00608CF305B2}):41"/>
          <v:ud v:nameU="ShapeClass" v:prompt="Annotation" v:val="VT0(1):26"/>
          <v:ud v:nameU="ShapeType" v:prompt="Points Of Interest" v:val="VT0(53):26"/>
          <v:ud v:nameU="SubShapeType" v:prompt="Toilet" v:val="VT0(87):26"/>
          <v:ud v:nameU="LastText" v:val="VT4()"/>
          <v:ud v:nameU="TextSync"/>
          <v:ud v:nameU="visVersion" v:val="VT0(15):26"/>
          <v:ud v:nameU="visLegendShape" v:val="VT0(2):26"/>
        </v:userDefs>
        <v:textBlock v:margins="rect(4,4,4,4)" v:tabSpace="42.52"/>
        <v:textRect cx="25.49" cy="89.774" width="10.72" height="22.404"/>
      </g>
      <g id="shape709-8" v:mID="709" v:groupContext="shape" transform="translate(20.392 -3.841)">
        <title>
          Sheet.709
        </title>
        <path class="st3" d="M0 46.434h29.263v32.138H0z"/>
      </g>
      <g id="shape710-10" v:mID="710" v:groupContext="shape" transform="translate(23.95 -8.661)">
        <title>
          Sheet.710
        </title>
        <path d="M14.9 70.91c0 4.35-3.36 7.66-7.55 7.66-3.99 0-7.35-3.31-7.35-7.66 0-4.15 3.36-7.46 7.35-7.46 4.19 0 7.55 3.31 7.55 7.46" class="st4"/>
      </g>
      <g id="shape711-13" v:mID="711" v:groupContext="shape" transform="translate(30.993 -23.268)">
        <title>
          Sheet.711
        </title>
        <path d="M0 72.66l4.76-2.96 4.98 4.55-1.87-1.59-3.93 4.77 1.86 1.14 3.94-4.32" class="st5"/>
      </g>
      <g id="shape712-16" v:mID="712" v:groupContext="shape" transform="translate(38.036 -12.347)">
        <title>
          Sheet.712
        </title>
        <path d="M0 70.38l6.2-.45-1.49 8.64" class="st5"/>
      </g>
      <g id="shape713-19" v:mID="713" v:groupContext="shape" transform="translate(43.422 -32.14)">
        <title>
          Sheet.713
        </title>
        <path d="M0 78.57h.21" class="st6"/>
      </g>
      <g id="shape714-22" v:mID="714" v:groupContext="shape" transform="translate(25.387 -5.487)">
        <title>
          Sheet.714
        </title>
        <path d="M0 60.02l15.13 18.55" class="st7"/>
      </g>
      <g id="shape715-25" v:mID="715" v:groupContext="shape" transform="translate(20.392 -3.841)">
        <title>
          Sheet.715
        </title>
        <path class="st8" d="M0 46.434h29.263v32.138H0z"/>
        <path class="st9" d="M0 46.434h29.263v32.138H0z"/>
      </g>
    </g>
  </g>
</svg>
