<svg xmlns="http://www.w3.org/2000/svg" xmlns:v="http://schemas.microsoft.com/visio/2003/SVGExtensions/" width="74.641" height="78.225" viewBox="0 0 55.9809 58.6684" color-interpolation-filters="sRGB" class="st5">
  <v:documentProperties v:langID="4105" v:metric="true" v:viewMarkup="false"/>
  <style>
    .st1{fill:#7aa69c;stroke:#fff;stroke-linecap:round;stroke-linejoin:round;stroke-width:5}.st2{fill:#fff}.st3{fill:none;stroke:none;stroke-linecap:round;stroke-linejoin:round;stroke-width:5}.st4{fill:#fff;font-family:Calibri;font-size:1.99999em;font-weight:700}.st5{fill:none;fill-rule:evenodd;font-size:12px;overflow:visible;stroke-linecap:square;stroke-miterlimit:3}
  </style>
  <g v:mID="0" v:index="1" v:groupContext="foregroundPage">
    <title>
      Page-1
    </title>
    <v:pageProperties v:drawingScale=".039" v:pageScale=".039" v:drawingUnits="24" v:shadowOffsetX="8.504" v:shadowOffsetY="-8.504"/>
    <g id="group694-1" transform="translate(2.5 -2.5)" v:mID="694" v:groupContext="group">
      <title>
        Assistance Phone
      </title>
      <g id="shape695-2" v:mID="695" v:groupContext="shape">
        <title>
          Sheet.695
        </title>
        <rect y="5" width="50.981" height="53.668" rx="8.504" ry="8.504" class="st1"/>
      </g>
      <g id="shape696-4" v:mID="696" v:groupContext="shape" transform="translate(7.772 -6.679)">
        <title>
          Sheet.696
        </title>
        <v:userDefs>
          <v:ud v:nameU="Shadow" v:val="VT0(0):5"/>
        </v:userDefs>
        <path d="M10.75 47.4v11.27h3.17a1.168 1.125-180 0 0 1.1-1.02L15 48.59a1.459 1.405-180 0 0-1.24-1.16l-3.01-.03zm.16-28.42v11.24l3.09.04a1.096 1.056-180 0 0 1.1-1.1l-.02-9.4a.802.772-180 0 0-.802-.772l-3.368-.008zm-1.53 0a8.434 8.124-180 0 0-3.21 1.24A20.623 19.864-180 0 0 .4 32.32a70.425 67.833-180 0 0 0 14.46 17.595 16.947-180 0 0 6.71 10.98 17.627 16.979-180 0 0 1.95.88L8.99 47.4a1.625 1.565 0 0 1-1.21-.47 25.77 24.822 0 0 1-.13-16.37 2.336 2.25 0 0 1 1.73-.34V18.98z" class="st2"/>
      </g>
      <g id="shape697-7" v:mID="697" v:groupContext="shape" transform="translate(22.174 -9.984)">
        <title>
          Sheet.697
        </title>
        <desc>
          A
        </desc>
        <v:textBlock v:margins="rect(4,4,4,4)" v:tabSpace="42.52"/>
        <v:textRect cx="11.636" cy="41.887" width="23.28" height="33.562"/>
        <rect y="25.106" width="23.273" height="33.562" rx="8.504" ry="8.504" class="st3"/>
        <text x="4.36" y="49.09" class="st4" v:langID="1033">
          <v:paragraph v:horizAlign="1"/>
<v:tabList/>
A
        </text>
      </g>
    </g>
  </g>
</svg>
