<svg xmlns="http://www.w3.org/2000/svg" xmlns:v="http://schemas.microsoft.com/visio/2003/SVGExtensions/" width="74.641" height="78.225" viewBox="0 0 55.9809 58.6684" color-interpolation-filters="sRGB" class="st5">
  <v:documentProperties v:langID="4105" v:metric="true" v:viewMarkup="false"/>
  <style>
    .st1{fill:red;stroke:#fff;stroke-linecap:round;stroke-linejoin:round;stroke-width:5}.st2{fill:#fff}.st3{fill:none;stroke:none;stroke-linecap:round;stroke-linejoin:round;stroke-width:5}.st4{fill:#fff;font-family:Franklin Gothic Book;font-size:1.16666em;font-weight:700}.st5{fill:none;fill-rule:evenodd;font-size:12px;overflow:visible;stroke-linecap:square;stroke-miterlimit:3}
  </style>
  <g v:mID="0" v:index="1" v:groupContext="foregroundPage">
    <title>
      Page-1
    </title>
    <v:pageProperties v:drawingScale=".039" v:pageScale=".039" v:drawingUnits="24" v:shadowOffsetX="8.504" v:shadowOffsetY="-8.504"/>
    <g id="group698-1" transform="translate(2.5 -2.5)" v:mID="698" v:groupContext="group">
      <title>
        Emergency Phone
      </title>
      <g id="shape699-2" v:mID="699" v:groupContext="shape">
        <title>
          Sheet.699
        </title>
        <rect y="5" width="50.981" height="53.668" rx="8.504" ry="8.504" class="st1"/>
      </g>
      <g id="shape700-4" v:mID="700" v:groupContext="shape" transform="translate(8.52 -6.962)">
        <title>
          Phone, Emergency.88
        </title>
        <v:userDefs>
          <v:ud v:nameU="Shadow" v:val="VT0(0):5"/>
        </v:userDefs>
        <path d="M9.07 47.4v11.27h2.68a.986 1.125-180 0 0 .93-1.023l-.02-9.057a1.231 1.405-180 0 0-1.05-1.16l-2.54-.03zm.14-28.42v11.24l2.6.04a.925 1.056-180 0 0 .93-1.1l-.01-9.4a.676.772-180 0 0-.676-.772L9.21 18.98zm-1.3 0a7.118 8.124-180 0 0-2.7 1.24 17.404 19.864-180 0 0-4.87 12.1 59.434 67.833-180 0 0 0 14.46A14.848 16.947-180 0 0 6 57.76a14.876 16.979-180 0 0 1.64.88L7.59 47.4a1.371 1.565 0 0 1-1.03-.47 21.748 24.822 0 0 1-.11-16.37 1.971 2.25 0 0 1 1.46-.34V18.98z" class="st2"/>
      </g>
      <g id="shape701-7" v:mID="701" v:groupContext="shape" transform="translate(14.499 -16.867)">
        <title>
          Phone, Emergency.89
        </title>
        <desc>
          SOS
        </desc>
        <v:textBlock v:margins="rect(4,4,4,4)" v:tabSpace="42.52"/>
        <v:textRect cx="18.241" cy="48.686" width="36.49" height="19.965"/>
        <rect y="38.704" width="36.482" height="19.965" rx="8.504" ry="8.504" class="st3"/>
        <text x="5.84" y="52.89" class="st4" v:langID="4105">
          <v:paragraph v:horizAlign="1"/>
<v:tabList/>
SOS
        </text>
      </g>
    </g>
  </g>
</svg>
