<svg xmlns="http://www.w3.org/2000/svg" xmlns:v="http://schemas.microsoft.com/visio/2003/SVGExtensions/" width="74.641" height="181.563" viewBox="0 0 55.9809 136.172" color-interpolation-filters="sRGB" class="st3">
  <v:documentProperties v:langID="4105" v:metric="true" v:viewMarkup="false"/>
  <style>
    .st1{fill:red;stroke:#fff;stroke-linecap:round;stroke-linejoin:round;stroke-width:5}.st2{fill:#fff}.st3{fill:none;fill-rule:evenodd;font-size:12px;overflow:visible;stroke-linecap:square;stroke-miterlimit:3}
  </style>
  <g v:mID="0" v:index="1" v:groupContext="foregroundPage">
    <title>
      Page-1
    </title>
    <v:pageProperties v:drawingScale=".039" v:pageScale=".039" v:drawingUnits="24" v:shadowOffsetX="8.504" v:shadowOffsetY="-8.504"/>
    <g id="group659-1" transform="translate(2.5 -80.004)" v:mID="659" v:groupContext="group">
      <title>
        Emergency Exit
      </title>
      <g id="shape660-2" v:mID="660" v:groupContext="shape">
        <title>
          Sheet.660
        </title>
        <rect y="82.504" width="50.981" height="53.668" rx="8.504" ry="8.504" class="st1"/>
      </g>
      <g id="shape661-4" v:mID="661" v:groupContext="shape" transform="translate(10.107 -8.05)">
        <title>
          Sheet.661
        </title>
        <v:userDefs>
          <v:ud v:nameU="Shadow" v:val="VT0(0):5"/>
        </v:userDefs>
        <path d="M7.17 98.89h18.72v30.5l-4.38 5.43H3.19l3.98-5.09V98.89l-1.59-1.36v31.86L0 136.17h22.7l4.78-6.1V97.53H5.58l1.59 1.36z" class="st2"/>
      </g>
      <g id="shape662-7" v:mID="662" v:groupContext="shape" transform="translate(12.78 -11.378)">
        <title>
          Sheet.662
        </title>
        <v:userDefs>
          <v:ud v:nameU="Shadow" v:val="VT0(0):5"/>
        </v:userDefs>
        <path d="M14.85 121.55l1.32-6.45 1.94 3.23 4.07-2.87a1.489 1.567-180 0 0-.49-3.05l-3.5 1.96-2.18-3.39a2.793 2.94-180 1 0-2.59-1.36l-5.89.92a217.297 228.752-180 0 0-.64 1.37l-2.38 6.21a1.562 1.645-180 0 0 1.96 1.67l2.01-4.94.8-.42-1.17 7.09-1.4 3.17-5.5-.01a2.489 2.62-180 0 0-.23 4.33l7.2.01 3.49-4.11 1.65 5.73-1.34 3.21a1.991 2.096-180 0 0 3.44 1.66l1.44-4.78-2.01-9.18z" class="st2"/>
      </g>
      <g id="shape663-10" v:mID="663" v:groupContext="shape">
        <title>
          Fire Exit.584
        </title>
        <v:custProps>
          <v:cp v:nameU="Text" v:lbl="Text" v:type="4" v:format="&lt;no master&gt;;" v:invis="false" v:langID="1033" v:val="VT4()"/>
          <v:cp v:nameU="ShapeClass" v:lbl="ShapeClass" v:type="0" v:invis="true" v:langID="1033" v:val="VT4(Annotation)"/>
          <v:cp v:nameU="ShapeType" v:lbl="ShapeType" v:type="0" v:invis="true" v:langID="1033" v:val="VT4(Points Of Interest)"/>
          <v:cp v:nameU="SubShapeType" v:lbl="SubShapeType" v:type="0" v:invis="true" v:langID="1033" v:val="VT4(No smoking)"/>
          <v:cp v:nameU="Text" v:type="0" v:format="Emergency Exit;" v:invis="false" v:ask="false" v:langID="0" v:cal="0" v:val="VT0(0):26"/>
        </v:custProps>
        <v:userDefs>
          <v:ud v:nameU="SolSH" v:val="VT15({5D50005D-537C-4738-9C46-130C74335A6D}):41"/>
          <v:ud v:nameU="AntiScale" v:val="VT0(1):26"/>
          <v:ud v:nameU="HasText" v:val="VT0(0):5"/>
          <v:ud v:nameU="ShowBorder" v:val="VT0(1):5"/>
          <v:ud v:nameU="visLegendSymbolID" v:val="VT15({05160C66-000D-0000-8E40-00608CF305B2}):41"/>
          <v:ud v:nameU="ShapeClass" v:prompt="Annotation" v:val="VT0(1):26"/>
          <v:ud v:nameU="ShapeType" v:prompt="Points Of Interest" v:val="VT0(53):26"/>
          <v:ud v:nameU="SubShapeType" v:prompt="No smoking" v:val="VT0(178):26"/>
          <v:ud v:nameU="LastText" v:val="VT4()"/>
          <v:ud v:nameU="TextSync"/>
          <v:ud v:nameU="visVersion" v:val="VT0(15):26"/>
          <v:ud v:nameU="visLegendShape" v:val="VT0(2):26"/>
        </v:userDefs>
        <v:textBlock v:margins="rect(4,4,4,4)" v:tabSpace="42.52"/>
        <v:textRect cx="25.49" cy="176.174" width="23.04" height="80.004"/>
      </g>
    </g>
  </g>
</svg>
