<svg xmlns="http://www.w3.org/2000/svg" xmlns:v="http://schemas.microsoft.com/visio/2003/SVGExtensions/" width="74.641" height="205.563" viewBox="0 0 55.9809 154.172" color-interpolation-filters="sRGB" class="st3">
  <v:documentProperties v:langID="4105" v:metric="true" v:viewMarkup="false"/>
  <style>
    .st1{fill:#039;stroke:#fff;stroke-linecap:round;stroke-linejoin:round;stroke-width:5}.st2{fill:#fff}.st3{fill:none;fill-rule:evenodd;font-size:12px;overflow:visible;stroke-linecap:square;stroke-miterlimit:3}
  </style>
  <g v:mID="0" v:index="1" v:groupContext="foregroundPage">
    <title>
      Page-1
    </title>
    <v:pageProperties v:drawingScale=".039" v:pageScale=".039" v:drawingUnits="24" v:shadowOffsetX="8.504" v:shadowOffsetY="-8.504"/>
    <g id="group728-1" transform="translate(2.5 -98.004)" v:mID="728" v:groupContext="group">
      <title>
        Washroom Women.74
      </title>
      <g id="shape729-2" v:mID="729" v:groupContext="shape">
        <title>
          Sheet.729
        </title>
        <rect y="100.504" width="50.981" height="53.668" rx="8.504" ry="8.504" class="st1"/>
      </g>
      <g id="shape730-4" v:mID="730" v:groupContext="shape" transform="translate(15.513 -7.531)">
        <title>
          Sheet.730
        </title>
        <v:userDefs>
          <v:ud v:nameU="Shadow" v:val="VT0(0):5"/>
        </v:userDefs>
        <path d="M12.54 122.58H6.36a3.624 3.535-180 0 0-2.41 1.35 7.944 7.748-180 0 0-1.05 2.41l-2.88 8.59a1.195 1.165-180 0 0 2.19.86l3-8.84a.618.603 0 0 1 1.11.248L1.77 141.61h4.11v11.5a1.468 1.431-180 0 0 2.84 0v-11.5h.98v11.5a1.475 1.438-180 0 0 2.84 0v-11.5h4.33l-4.22-14.16a.688.671 0 0 1 1.128-.39l2.582 8.51a1.34 1.307-180 0 0 2.48-.85l-2.95-8.87a4.547 4.435-180 0 0-.8-1.67 4.502 4.391-180 0 0-2.55-1.6zm.15-4.08a3.077 2.933-180 1 0-6.16 0 3.077 2.933-180 1 0 6.16 0z" class="st2"/>
      </g>
      <g id="shape731-7" v:mID="731" v:groupContext="shape">
        <title>
          Washrrom Female.508
        </title>
        <v:custProps>
          <v:cp v:nameU="Text" v:lbl="Text" v:type="4" v:format="&lt;no master&gt;;" v:invis="false" v:langID="1033" v:val="VT4()"/>
          <v:cp v:nameU="ShapeClass" v:lbl="ShapeClass" v:type="0" v:invis="true" v:langID="1033" v:val="VT4(Annotation)"/>
          <v:cp v:nameU="ShapeType" v:lbl="ShapeType" v:type="0" v:invis="true" v:langID="1033" v:val="VT4(Points Of Interest)"/>
          <v:cp v:nameU="SubShapeType" v:lbl="SubShapeType" v:type="0" v:invis="true" v:langID="1033" v:val="VT4(Toilet)"/>
          <v:cp v:nameU="Text" v:type="0" v:format="Washroom Women;" v:invis="false" v:ask="false" v:langID="0" v:cal="0" v:val="VT0(0):26"/>
        </v:custProps>
        <v:userDefs>
          <v:ud v:nameU="SolSH" v:val="VT15({5D50005D-537C-4738-9C46-130C74335A6D}):41"/>
          <v:ud v:nameU="AntiScale" v:val="VT0(1):26"/>
          <v:ud v:nameU="HasText" v:val="VT0(0):5"/>
          <v:ud v:nameU="ShowBorder" v:val="VT0(1):5"/>
          <v:ud v:nameU="visLegendSymbolID" v:val="VT15({05141190-000B-0000-8E40-00608CF305B2}):41"/>
          <v:ud v:nameU="ShapeClass" v:prompt="Annotation" v:val="VT0(1):26"/>
          <v:ud v:nameU="ShapeType" v:prompt="Points Of Interest" v:val="VT0(53):26"/>
          <v:ud v:nameU="SubShapeType" v:prompt="Toilet" v:val="VT0(87):26"/>
          <v:ud v:nameU="LastText" v:val="VT4()"/>
          <v:ud v:nameU="TextSync"/>
          <v:ud v:nameU="visVersion" v:val="VT0(15):26"/>
          <v:ud v:nameU="visLegendShape" v:val="VT0(2):26"/>
        </v:userDefs>
        <v:textBlock v:margins="rect(4,4,4,4)" v:tabSpace="42.52"/>
        <v:textRect cx="25.49" cy="203.174" width="26.8" height="98.004"/>
      </g>
    </g>
  </g>
</svg>
