<svg xmlns="http://www.w3.org/2000/svg" xmlns:v="http://schemas.microsoft.com/visio/2003/SVGExtensions/" width="74.641" height="104.763" viewBox="0 0 55.9809 78.5722" color-interpolation-filters="sRGB" class="st4">
  <v:documentProperties v:langID="4105" v:metric="true" v:viewMarkup="false"/>
  <style>
    .st1,.st2{fill:#ff0;stroke:#fff;stroke-linecap:round;stroke-linejoin:round;stroke-width:5}.st2{stroke:#031ddb;stroke-width:2}.st3{fill:#039}.st4{fill:none;fill-rule:evenodd;font-size:12px;overflow:visible;stroke-linecap:square;stroke-miterlimit:3}
  </style>
  <g v:mID="0" v:index="1" v:groupContext="foregroundPage">
    <title>
      Page-1
    </title>
    <v:pageProperties v:drawingScale=".039" v:pageScale=".039" v:drawingUnits="24" v:shadowOffsetX="8.504" v:shadowOffsetY="-8.504"/>
    <g id="group760-1" transform="translate(2.5 -22.404)" v:mID="760" v:groupContext="group">
      <title>
        Information Services.80
      </title>
      <g id="shape761-2" v:mID="761" v:groupContext="shape">
        <title>
          Sheet.761
        </title>
        <rect y="24.904" width="50.981" height="53.668" rx="8.504" ry="8.504" class="st1"/>
      </g>
      <g id="shape762-4" v:mID="762" v:groupContext="shape">
        <title>
          Information Services.740
        </title>
        <v:custProps>
          <v:cp v:nameU="Text" v:lbl="Text" v:type="4" v:format="&lt;no master&gt;;" v:invis="false" v:langID="1033" v:val="VT4()"/>
          <v:cp v:nameU="ShapeClass" v:lbl="ShapeClass" v:type="0" v:invis="true" v:langID="1033" v:val="VT4(Annotation)"/>
          <v:cp v:nameU="ShapeType" v:lbl="ShapeType" v:type="0" v:invis="true" v:langID="1033" v:val="VT4(Points Of Interest)"/>
          <v:cp v:nameU="SubShapeType" v:lbl="SubShapeType" v:type="0" v:invis="true" v:langID="1033" v:val="VT4(Information)"/>
          <v:cp v:nameU="Text" v:type="0" v:format="Information Services;" v:invis="false" v:ask="false" v:langID="0" v:cal="0" v:val="VT0(0):26"/>
        </v:custProps>
        <v:userDefs>
          <v:ud v:nameU="SolSH" v:val="VT15({5D50005D-537C-4738-9C46-130C74335A6D}):41"/>
          <v:ud v:nameU="AntiScale" v:val="VT0(1):26"/>
          <v:ud v:nameU="HasText" v:val="VT0(0):5"/>
          <v:ud v:nameU="ShowBorder" v:val="VT0(1):5"/>
          <v:ud v:nameU="visLegendSymbolID" v:val="VT15({05144766-0018-0000-8E40-00608CF305B2}):41"/>
          <v:ud v:nameU="ShapeClass" v:prompt="Annotation" v:val="VT0(1):26"/>
          <v:ud v:nameU="ShapeType" v:prompt="Points Of Interest" v:val="VT0(53):26"/>
          <v:ud v:nameU="SubShapeType" v:prompt="Information" v:val="VT0(159):26"/>
          <v:ud v:nameU="LastText" v:val="VT4()"/>
          <v:ud v:nameU="TextSync"/>
          <v:ud v:nameU="visVersion" v:val="VT0(15):26"/>
          <v:ud v:nameU="visLegendShape" v:val="VT0(2):26"/>
        </v:userDefs>
        <v:textBlock v:margins="rect(4,4,4,4)" v:tabSpace="42.52"/>
        <v:textRect cx="25.49" cy="89.774" width="11.01" height="22.404"/>
      </g>
      <g id="shape763-5" v:mID="763" v:groupContext="shape" transform="translate(7.77 -9.114)">
        <title>
          Circle
        </title>
        <v:userDefs>
          <v:ud v:nameU="visVersion" v:val="VT0(15):26"/>
        </v:userDefs>
        <path d="M0 60.85a17.72 17.72 0 0 1 35.44 0 17.72 17.72 0 0 1-35.44 0z" class="st2"/>
      </g>
      <g id="shape764-7" v:mID="764" v:groupContext="shape" transform="translate(17.352 -13.264)">
        <title>
          Sheet.764
        </title>
        <v:userDefs>
          <v:ud v:nameU="Shadow" v:val="VT0(0):5"/>
        </v:userDefs>
        <path d="M6.13 72.24h3.93v-3.25a3.647 3.84 0 0 1 2.28-3.33 10.639 11.2-180 0 0 3.21-3.12 6.584 6.93-180 0 0 .08-6.16 8.297 8.734-180 0 0-4.49-4.3 7.796 8.207-180 0 0-6.41.16 9.07 9.548-180 0 0-4.01 4.22A7.75 8.158-180 0 0 0 59.42v2.28h4.01v-2.03a4.374 4.605 0 0 1 1.44-2.91 4.153 4.372 0 0 1 5.41 0 2.97 3.126 0 0 1 .2 4.68 12.205 12.849 0 0 1-3.2 2.36 3.762 3.96-180 0 0-1.69 3.04l-.04 5.4zm-.08 6.33h4.01v-4.39H6.05v4.39z" class="st3"/>
      </g>
    </g>
  </g>
</svg>
