<svg xmlns="http://www.w3.org/2000/svg" xmlns:v="http://schemas.microsoft.com/visio/2003/SVGExtensions/" width="74.641" height="243.269" viewBox="0 0 55.9809 182.452" color-interpolation-filters="sRGB" class="st3">
  <v:documentProperties v:langID="4105" v:metric="true" v:viewMarkup="false"/>
  <style>
    .st1{fill:#039;stroke:#fff;stroke-linecap:round;stroke-linejoin:round;stroke-width:5}.st2{fill:#fff}.st3{fill:none;fill-rule:evenodd;font-size:12px;overflow:visible;stroke-linecap:square;stroke-miterlimit:3}
  </style>
  <g v:mID="0" v:index="1" v:groupContext="foregroundPage">
    <title>
      Page-1
    </title>
    <v:pageProperties v:drawingScale=".039" v:pageScale=".039" v:drawingUnits="24" v:shadowOffsetX="8.504" v:shadowOffsetY="-8.504"/>
    <g id="group732-1" transform="translate(2.5 -126.283)" v:mID="732" v:groupContext="group">
      <title>
        Washroom Men.75
      </title>
      <g id="shape733-2" v:mID="733" v:groupContext="shape">
        <title>
          Sheet.733
        </title>
        <rect y="128.783" width="50.981" height="53.668" rx="8.504" ry="8.504" class="st1"/>
      </g>
      <g id="shape734-4" v:mID="734" v:groupContext="shape" transform="translate(17.412 -8.422)">
        <title>
          Sheet.734
        </title>
        <v:userDefs>
          <v:ud v:nameU="Shadow" v:val="VT0(0):5"/>
        </v:userDefs>
        <path d="M11.44 148.25a3.405 2.94-180 1 0-6.81 0 3.405 2.94-180 1 0 6.81 0zm.87 4.01H4.16A3.961 3.46-180 0 0 0 155.69v10.13a1.295 1.13-180 0 0 2.57 0l.04-8.72a.594.519 0 1 1 1.188 0l.002 23.86a1.804 1.576-180 0 0 3.6 0v-13.9a.818.714 0 0 1 1.227 0l.003 13.9a1.825 1.594-180 0 0 3.64 0v-23.89a.62.542 0 1 1 1.227 0l.003 8.75a1.334 1.165-180 0 0 2.65 0v-10.13a3.784 3.305-180 0 0-3.84-3.43z" class="st2"/>
      </g>
      <g id="shape735-7" v:mID="735" v:groupContext="shape" transform="translate(0 -1.72)">
        <title>
          Washrrom Male.505
        </title>
        <v:custProps>
          <v:cp v:nameU="Text" v:lbl="Text" v:type="4" v:format="&lt;no master&gt;;" v:invis="false" v:langID="1033" v:val="VT4()"/>
          <v:cp v:nameU="ShapeClass" v:lbl="ShapeClass" v:type="0" v:invis="true" v:langID="1033" v:val="VT4(Annotation)"/>
          <v:cp v:nameU="ShapeType" v:lbl="ShapeType" v:type="0" v:invis="true" v:langID="1033" v:val="VT4(Points Of Interest)"/>
          <v:cp v:nameU="SubShapeType" v:lbl="SubShapeType" v:type="0" v:invis="true" v:langID="1033" v:val="VT4(Toilet)"/>
          <v:cp v:nameU="Text" v:type="0" v:format="Washroom Men;" v:invis="false" v:ask="false" v:langID="0" v:cal="0" v:val="VT0(0):26"/>
        </v:custProps>
        <v:userDefs>
          <v:ud v:nameU="SolSH" v:val="VT15({5D50005D-537C-4738-9C46-130C74335A6D}):41"/>
          <v:ud v:nameU="AntiScale" v:val="VT0(1):26"/>
          <v:ud v:nameU="HasText" v:val="VT0(0):5"/>
          <v:ud v:nameU="ShowBorder" v:val="VT0(1):5"/>
          <v:ud v:nameU="visLegendSymbolID" v:val="VT15({0513F907-0008-0000-8E40-00608CF305B2}):41"/>
          <v:ud v:nameU="ShapeClass" v:prompt="Annotation" v:val="VT0(1):26"/>
          <v:ud v:nameU="ShapeType" v:prompt="Points Of Interest" v:val="VT0(53):26"/>
          <v:ud v:nameU="SubShapeType" v:prompt="Toilet" v:val="VT0(87):26"/>
          <v:ud v:nameU="LastText" v:val="VT4()"/>
          <v:ud v:nameU="TextSync"/>
          <v:ud v:nameU="visVersion" v:val="VT0(15):26"/>
          <v:ud v:nameU="visLegendShape" v:val="VT0(2):26"/>
        </v:userDefs>
        <v:textBlock v:margins="rect(4,4,4,4)" v:tabSpace="42.52"/>
        <v:textRect cx="25.49" cy="246.454" width="33.06" height="128.004"/>
      </g>
    </g>
  </g>
</svg>
