<svg xmlns="http://www.w3.org/2000/svg" xmlns:xlink="http://www.w3.org/1999/xlink" xmlns:v="http://schemas.microsoft.com/visio/2003/SVGExtensions/" width="74.641" height="78.225" viewBox="0 0 55.9809 58.6684" color-interpolation-filters="sRGB" class="st6">
  <v:documentProperties v:langID="4105" v:metric="true" v:viewMarkup="false"/>
  <style>
    .st1,.st2{fill:#039;stroke-linecap:round;stroke-linejoin:round}.st1{stroke:#fff;stroke-width:5}.st2{stroke-width:1.75}.st2,.st3,.st4{stroke:#fff}.st3{marker-start:url(#mrkr1-12);stroke-linecap:round;stroke-linejoin:round;stroke-width:1.75}.st4{fill-opacity:1;stroke-opacity:1;stroke-width:.30647985989492}.st4,.st5{fill:#fff}.st6{fill:none;fill-rule:evenodd;font-size:12px;overflow:visible;stroke-linecap:square;stroke-miterlimit:3}
  </style>
  <defs id="Markers">
    <path d="M1-1L0 0l1 1" stroke-linecap="round" stroke-linejoin="round" fill="none" id="lend1"/>
    <marker id="mrkr1-12" class="st4" v:arrowType="1" v:arrowSize="4" orient="auto" overflow="visible">
      <use xlink:href="#lend1" transform="scale(3.26286)"/>
    </marker>
  </defs>
  <g v:mID="0" v:index="1" v:groupContext="foregroundPage">
    <title>
      Page-1
    </title>
    <v:pageProperties v:drawingScale=".039" v:pageScale=".039" v:drawingUnits="24" v:shadowOffsetX="8.504" v:shadowOffsetY="-8.504"/>
    <v:layer v:name="Flow Segment" v:index="0"/>
    <g id="group669-1" transform="translate(2.5 -2.5)" v:mID="669" v:groupContext="group">
      <title>
        Public Elevator.65
      </title>
      <g id="group670-2" v:mID="670" v:groupContext="group">
        <title>
          Sheet.670
        </title>
        <g id="shape671-3" v:mID="671" v:groupContext="shape">
          <title>
            Sheet.671
          </title>
          <rect y="5" width="50.981" height="53.668" rx="8.504" ry="8.504" class="st1"/>
        </g>
        <g id="shape672-5" v:mID="672" v:groupContext="shape" transform="translate(12.75 -7.876)">
          <title>
            Rounded Rectangle
          </title>
          <v:userDefs>
            <v:ud v:nameU="CTypeTopLeftSnip" v:val="VT0(0):5"/>
            <v:ud v:nameU="CTypeTopRightSnip" v:val="VT0(0):5"/>
            <v:ud v:nameU="CTypeBotLeftSnip" v:val="VT0(0):5"/>
            <v:ud v:nameU="CTypeBotRightSnip" v:val="VT0(0):5"/>
            <v:ud v:nameU="CornerLockHoriz" v:val="VT0(1):5"/>
            <v:ud v:nameU="CornerLockVert" v:val="VT0(1):5"/>
            <v:ud v:nameU="CornerLockDiag" v:val="VT0(0):5"/>
            <v:ud v:nameU="TopLeftOffset" v:val="VT0(0.036126971075337):1"/>
            <v:ud v:nameU="TopRightOffset" v:val="VT0(0.036126971075337):1"/>
            <v:ud v:nameU="BotLeftOffset" v:val="VT0(0.036126971075337):1"/>
            <v:ud v:nameU="BotRightOffset" v:val="VT0(0.036126971075337):1"/>
            <v:ud v:nameU="visVersion" v:val="VT0(15):26"/>
            <v:ud v:nameU="TopLeftOffset" v:val="VT0(0.035392528774697):1"/>
            <v:ud v:nameU="TopRightOffset" v:val="VT0(0.035392528774697):1"/>
            <v:ud v:nameU="BotLeftOffset" v:val="VT0(0.035392528774697):1"/>
            <v:ud v:nameU="BotRightOffset" v:val="VT0(0.035392528774697):1"/>
          </v:userDefs>
          <path d="M2.55 58.67h20.38a2.548 2.548-180 0 0 2.55-2.55V36.61a2.548 2.548-180 0 0-2.55-2.55H2.55A2.548 2.548-180 0 0 0 36.61v19.51a2.548 2.548-180 0 0 2.55 2.55z" class="st2"/>
        </g>
        <g id="shape673-7" v:mID="673" v:groupContext="shape" v:layerMember="0" transform="rotate(-90 -6.54 28.196)">
          <title>
            Pipe flow arrow
          </title>
          <v:custProps>
            <v:cp v:nameU="ShapeClass" v:lbl="Shape class" v:invis="true" v:langID="1033" v:val="VT4(Annotation)"/>
            <v:cp v:nameU="ShapeType" v:lbl="Shape type" v:invis="true" v:langID="1033" v:val="VT4()"/>
            <v:cp v:nameU="SubShapeType" v:lbl="Subshape type" v:invis="true" v:langID="1033" v:val="VT4()"/>
          </v:custProps>
          <v:userDefs>
            <v:ud v:nameU="visVersion" v:val="VT0(15):26"/>
            <v:ud v:nameU="SolSH" v:val="VT4({5D50005D-537C-4738-9C46-130C74335A6D})"/>
            <v:ud v:nameU="ShapeClass" v:prompt="Annotation" v:val="VT0(1):26"/>
            <v:ud v:nameU="ShapeType" v:val="VT0(0):26"/>
            <v:ud v:nameU="SubShapeType" v:val="VT0(0):26"/>
            <v:ud v:nameU="AntiScale" v:val="VT0(1):26"/>
            <v:ud v:nameU="HasText" v:val="VT0(0):5"/>
          </v:userDefs>
          <path d="M0 51.98h9.83" class="st3"/>
        </g>
        <g id="shape674-13" v:mID="674" v:groupContext="shape" v:layerMember="0" transform="rotate(90 35.797 46.852)">
          <title>
            Pipe flow arrow.286
          </title>
          <v:custProps>
            <v:cp v:nameU="ShapeClass" v:lbl="Shape class" v:invis="true" v:langID="1033" v:val="VT4(Annotation)"/>
            <v:cp v:nameU="ShapeType" v:lbl="Shape type" v:invis="true" v:langID="1033" v:val="VT4()"/>
            <v:cp v:nameU="SubShapeType" v:lbl="Subshape type" v:invis="true" v:langID="1033" v:val="VT4()"/>
          </v:custProps>
          <v:userDefs>
            <v:ud v:nameU="visVersion" v:val="VT0(15):26"/>
            <v:ud v:nameU="SolSH" v:val="VT4({5D50005D-537C-4738-9C46-130C74335A6D})"/>
            <v:ud v:nameU="ShapeClass" v:prompt="Annotation" v:val="VT0(1):26"/>
            <v:ud v:nameU="ShapeType" v:val="VT0(0):26"/>
            <v:ud v:nameU="SubShapeType" v:val="VT0(0):26"/>
            <v:ud v:nameU="AntiScale" v:val="VT0(1):26"/>
            <v:ud v:nameU="HasText" v:val="VT0(0):5"/>
          </v:userDefs>
          <path d="M0 49.96h10.6" class="st3"/>
        </g>
      </g>
      <g id="shape675-18" v:mID="675" v:groupContext="shape" transform="translate(16.614 -10.08)">
        <title>
          Sheet.675
        </title>
        <v:userDefs>
          <v:ud v:nameU="Shadow" v:val="VT0(0):5"/>
        </v:userDefs>
        <path d="M.49 45.08a.578.608-180 0 0-.481.717L.01 50.86a1.396 1.47-180 0 0 1.04.55v6.75a.603.635-180 0 0 1.162 0l-.002-6.75a.398.419 0 0 1 .641 0l.009 6.75a.616.648-180 0 0 1.202 0l-.002-6.71a1.76 1.854-180 0 0 1.2-.72v-5.02a.553.583-180 0 0-.601-.633L.49 45.08zm15.64-1.94a1.062 1.097-180 1 0-2.12 0 1.062 1.097-180 1 0 2.12 0zm-3.28 1.94a.578.608-180 0 0-.481.717l.001 5.063a1.396 1.47-180 0 0 1.04.55v6.75a.603.635-180 0 0 1.162 0l-.002-6.75a.398.419 0 0 1 .641 0l-.001 6.75a.616.648-180 0 0 1.202 0l-.002-6.71a1.76 1.854-180 0 0 1.21-.72v-5.02a.553.583-180 0 0-.601-.633l-4.169.003zm-2.89-1.94a1.062 1.097-180 1 0-2.12 0 1.062 1.097-180 1 0 2.12 0zm-3.29 1.94a.578.608-180 0 0-.481.717l.001 5.063a1.396 1.47-180 0 0 1.05.55v6.75a.603.635-180 0 0 1.162 0L8.4 51.41a.398.419 0 0 1 .641 0l-.001 6.75a.616.648-180 0 0 1.202 0l-.002-6.71a1.76 1.854-180 0 0 1.2-.72v-5.02a.553.583-180 0 0-.601-.633l-4.169.003zm-2.89-1.94a1.062 1.097-180 1 0-2.13 0 1.062 1.097-180 1 0 2.13 0z" class="st5"/>
      </g>
    </g>
  </g>
</svg>
