<svg xmlns="http://www.w3.org/2000/svg" xmlns:v="http://schemas.microsoft.com/visio/2003/SVGExtensions/" width="74.641" height="181.563" viewBox="0 0 55.9809 136.172" color-interpolation-filters="sRGB" class="st3">
  <v:documentProperties v:langID="4105" v:metric="true" v:viewMarkup="false"/>
  <style>
    .st1{fill:#039;stroke:#fff;stroke-linecap:round;stroke-linejoin:round;stroke-width:5}.st2{fill:#fff}.st3{fill:none;fill-rule:evenodd;font-size:12px;overflow:visible;stroke-linecap:square;stroke-miterlimit:3}
  </style>
  <g v:mID="0" v:index="1" v:groupContext="foregroundPage">
    <title>
      Page-1
    </title>
    <v:pageProperties v:drawingScale=".039" v:pageScale=".039" v:drawingUnits="24" v:shadowOffsetX="8.504" v:shadowOffsetY="-8.504"/>
    <g id="group655-1" transform="translate(2.5 -80.004)" v:mID="655" v:groupContext="group">
      <title>
        Public Phone
      </title>
      <g id="shape656-2" v:mID="656" v:groupContext="shape">
        <title>
          Sheet.656
        </title>
        <rect y="82.504" width="50.981" height="53.668" rx="8.504" ry="8.504" class="st1"/>
      </g>
      <g id="shape657-4" v:mID="657" v:groupContext="shape" transform="translate(15.54 -8.036)">
        <title>
          Sheet.657
        </title>
        <v:userDefs>
          <v:ud v:nameU="Shadow" v:val="VT0(0):5"/>
        </v:userDefs>
        <path d="M10.75 125.63v10.54h3.17a1.168 1.053-180 0 0 1.1-.96l-.02-8.46a1.459 1.315-180 0 0-1.24-1.09l-3.01-.03zm.16-26.59v10.51l3.09.04a1.096.988-180 0 0 1.102-1.03l-.022-8.79a.802.722-180 0 0-.802-.722l-3.368-.008zm-1.53 0a8.434 7.6-180 0 0-3.21 1.16A20.623 18.584-180 0 0 .4 111.53a70.425 63.463-180 0 0 0 13.52 17.595 15.855-180 0 0 6.71 10.27 17.627 15.885-180 0 0 1.95.82l-.07-10.51a1.625 1.464 0 0 1-1.21-.44 25.77 23.223 0 0 1-.13-15.31 2.336 2.105 0 0 1 1.73-.32V99.04z" class="st2"/>
      </g>
      <g id="shape658-7" v:mID="658" v:groupContext="shape">
        <title>
          Sheet.658
        </title>
        <v:custProps>
          <v:cp v:nameU="Text" v:lbl="Text" v:type="4" v:format="&lt;no master&gt;;" v:invis="false" v:langID="1033" v:val="VT4()"/>
          <v:cp v:nameU="ShapeClass" v:lbl="ShapeClass" v:type="0" v:invis="true" v:langID="1033" v:val="VT4(Annotation)"/>
          <v:cp v:nameU="ShapeType" v:lbl="ShapeType" v:type="0" v:invis="true" v:langID="1033" v:val="VT4(Points Of Interest)"/>
          <v:cp v:nameU="SubShapeType" v:lbl="SubShapeType" v:type="0" v:invis="true" v:langID="1033" v:val="VT4(Telephone)"/>
          <v:cp v:nameU="Text" v:type="0" v:format="Public Phone;" v:invis="false" v:ask="false" v:langID="0" v:cal="0" v:val="VT0(0):26"/>
        </v:custProps>
        <v:userDefs>
          <v:ud v:nameU="AntiScale" v:val="VT0(1):26"/>
          <v:ud v:nameU="HasText" v:val="VT0(0):5"/>
          <v:ud v:nameU="ShowBorder" v:val="VT0(1):5"/>
          <v:ud v:nameU="LastText" v:val="VT4()"/>
          <v:ud v:nameU="TextSync"/>
          <v:ud v:nameU="visLegendSymbolID" v:val="VT15({00EFEDE0-0000-0000-8E40-00608CF305B2}):41"/>
          <v:ud v:nameU="SolSH" v:val="VT15({5D50005D-537C-4738-9C46-130C74335A6D}):41"/>
          <v:ud v:nameU="ShapeClass" v:prompt="Annotation" v:val="VT0(1):26"/>
          <v:ud v:nameU="ShapeType" v:prompt="Points Of Interest" v:val="VT0(53):26"/>
          <v:ud v:nameU="SubShapeType" v:prompt="Telephone" v:val="VT0(85):26"/>
          <v:ud v:nameU="visVersion" v:val="VT0(15):26"/>
          <v:ud v:nameU="visLegendShape" v:val="VT0(2):26"/>
        </v:userDefs>
        <v:textBlock v:margins="rect(4,4,4,4)" v:tabSpace="42.52"/>
        <v:textRect cx="25.49" cy="176.174" width="23.04" height="80.004"/>
      </g>
    </g>
  </g>
</svg>
