<svg xmlns="http://www.w3.org/2000/svg" width="3840" height="2160" viewBox="0 0 1016 571.5">
  <g class="background" shape-rendering="crispEdges">
    <path d="M0-.243v389.949L389.949-.243z" fill="#999"/>
    <path d="M0 389.706V571.5h172.122L743.865-.243H389.949z" fill="#888"/>
    <path d="M534.325 209.296l181.85-181.85L1016.53 327.8v243.7h-120z" fill="#999"/>
    <path d="M716.175 27.446L1016.53 327.8V-.243H743.865z" fill="#777"/>
    <path d="M172.122 571.5H532.58l181.974-181.974-180.23-180.23z" fill="#666"/>
    <path d="M714.555 389.526L532.58 571.5h363.948z" fill="#888"/>
  </g>
  <g class="qul-squares" shape-rendering="crispEdges">
    <path d="M89.77 70.186V48.032h22.193v22.195H89.774v-.02z" fill="#fab80a"/>
    <path d="M76.26 100.895V78.74h22.188v22.196H76.26v-.02z" fill="#b91134"/>
    <path d="M52.924 70.186V48.032h22.189v22.195H52.924v-.02z" fill="#0f2d56"/>
    <path d="M80.011 78.785v-3.643H63.977v-4.997h11.054v-3.687h8.684V78.83h-3.704v-.02z" fill="#fccd52"/>
    <path d="M80.011 81.24v-2.496h3.704v2.536h-3.704v-.02z" fill="#e37b22"/>
    <path d="M63.977 70.186V59.092h7.452v7.366h3.687v3.769H63.974v-.02z" fill="#937948"/>
    <path d="M86.087 62.816v-3.642H75.031v-11.06h-3.684v-3.762h22.189v3.765h-3.683v14.736h-3.766v-.02z" fill="#ce4f5b"/>
    <path d="M89.73 62.853V47.997h3.85v14.904h-3.85v-.02z" fill="#cd422f"/>
    <path d="M71.347 59.133V48.035h3.766v11.139h-3.766v-.02z" fill="#7a2143"/>
    <path d="M74.99 66.54v-7.49h11.22v3.848h-2.457v3.687h-8.76v-.024z" fill="#cd463d"/>
    <path d="M71.347 66.5v-7.408h3.766v7.448h-3.766v-.02z" fill="#af3539"/>
    <path d="M98.37 82.471v-3.645H86.087V66.458h3.766v3.687h15.972v12.367H98.37v-.02z" fill="#425583"/>
    <path d="M89.77 70.186v-3.728h3.687v-3.686h12.368v7.455H89.77v-.02z" fill="#444b5d"/>
    <path d="M83.633 84.926v-3.728h2.454V78.74h12.365v3.772h-4.916v2.455h-9.903v-.02z" fill="#3f2b4f"/>
    <path d="M83.633 78.785V66.462h2.536v12.364h-2.536v-.02z" fill="#444e69"/>
    <path d="M83.633 81.24v-2.496h2.536v2.536h-2.536v-.02z" fill="#434059"/>
    <path d="M86.087 62.775h3.766v3.765h-3.766z" fill="#40385e"/>
    <path d="M89.77 62.775h3.77v3.765h-3.77z" fill="#413554"/>
    <path d="M83.633 62.775h2.536v3.765h-2.536z" fill="#413657"/>
    <path d="M93.457 104.581v-3.727h4.913v-15.97h7.373v-2.457h9.903v22.195H93.457v-.02z" fill="#fde5a5"/>
    <path d="M93.457 100.895v-16.01h4.995v16.05h-4.995v-.02z" fill="#cd422f"/>
    <path d="M98.37 84.926V82.43h7.455v2.536H98.37v-.02z" fill="#747073"/>
    <path d="M93.457 84.926V82.43h4.995v2.536h-4.995v-.02z" fill="#6e4b50"/>
    <path d="M70.119 97.211V84.967H57.836V75.06h6.223v6.137h12.283v16.054h-6.223v-.02z" fill="#e69f9e"/>
    <path d="M76.26 97.211v-16.01h3.837v16.051H76.26v-.02z" fill="#b91134"/>
    <path d="M63.977 81.24v-6.18H80.09v3.766h-3.748v2.458H63.977v-.024z" fill="#e48647"/>
    <path d="M76.26 81.24v-2.496h3.837v2.536H76.26v-.02z" fill="#d4552c"/>
    <path d="M48.009 107.036V84.88h9.91v12.29h12.278v9.906H48.01v-.02z" fill="#9299bb"/>
    <path d="M57.836 97.211V84.885h12.361v12.367h-12.36v-.02z" fill="#896c89"/>
  </g>
  <path class="qul-wordmark" transform="translate(989.833 135.403) scale(3.4136)" d="M-250.178-9.108a13.271 13.271 0 0 1-1.513-.54.85.85 0 0 0-.267-.057c-.865-.057-1.673-.694-1.673-1.945 0-1.15.728-2.014 1.872-2.014 1.172 0 1.815.887 1.815 1.934 0 .87-.404 1.485-.91 1.712v.023c.295.086.625.154.927.216zm-1.604-1.285c.58 0 .922-.552.922-1.303 0-.7-.33-1.28-.922-1.28-.591 0-.933.58-.933 1.297-.005.728.347 1.286.928 1.286zm4.238-3.208v2.207c0 .66.25.995.694.995.455 0 .705-.318.705-.995v-2.207h.865v2.15c0 1.183-.597 1.746-1.599 1.746-.967 0-1.536-.534-1.536-1.757v-2.14zm6.262 2.212h-1.41v.91h1.575v.712h-2.446v-3.834h2.366v.71h-1.496v.797h1.411zm4.004 0h-1.41v.91h1.575v.712h-2.446v-3.834h2.367v.71h-1.496v.797h1.41zm1.723 1.622v-3.834h1.013l.796 1.405a11.133 11.133 0 0 1 .626 1.314h.017a14.26 14.26 0 0 1-.074-1.604v-1.115h.797v3.834h-.91l-.82-1.48a14.4 14.4 0 0 1-.665-1.353l-.018.005c.023.506.035 1.047.035 1.672v1.155zm5.812-3.937a7.63 7.63 0 0 1-.682 1.536l-.524.051a8.66 8.66 0 0 0 .393-1.536zm1.343 3.043c.233.12.591.24.961.24.398 0 .609-.166.609-.416 0-.239-.182-.375-.643-.54-.637-.222-1.052-.575-1.052-1.132 0-.654.546-1.155 1.45-1.155.432 0 .751.091.979.194l-.194.7a1.82 1.82 0 0 0-.802-.183c-.375 0-.558.17-.558.37 0 .244.217.353.711.54.678.25.996.603.996 1.144 0 .642-.495 1.194-1.547 1.194-.438 0-.87-.12-1.087-.239zm6.934-2.94v2.207c0 .66.25.995.694.995.456 0 .706-.318.706-.995v-2.207h.865v2.15c0 1.183-.598 1.746-1.599 1.746-.967 0-1.536-.534-1.536-1.757v-2.14zm3.982 3.834v-3.834h1.012l.797 1.405a11.133 11.133 0 0 1 .625 1.314h.017a14.262 14.262 0 0 1-.073-1.604v-1.115h.796v3.834h-.91l-.82-1.48a14.4 14.4 0 0 1-.665-1.353l-.017.005c.023.506.034 1.047.034 1.672v1.155zm4.891-3.834h.87v3.834h-.87zm3.493 3.834l-1.229-3.834h.95l.467 1.62c.13.456.25.894.34 1.372h.018a16.777 16.777 0 0 1 .347-1.354l.49-1.638h.92l-1.29 3.834zm5.961-1.622h-1.41v.91h1.575v.712h-2.446v-3.834h2.366v.71h-1.496v.797h1.411zm1.723-2.161c.279-.046.694-.08 1.155-.08.568 0 .967.085 1.24.302.227.182.352.45.352.802 0 .49-.347.825-.676.944v.017c.267.108.415.364.512.717.119.432.238.933.312 1.08h-.887c-.063-.113-.154-.42-.268-.893-.102-.478-.267-.608-.62-.614h-.261v1.507h-.86v-3.782zm.859 1.65h.34c.433 0 .69-.217.69-.552 0-.353-.24-.53-.638-.535-.21 0-.33.017-.392.028zm3.51 1.24c.233.12.59.239.96.239.399 0 .61-.166.61-.416 0-.239-.183-.375-.644-.54-.637-.222-1.052-.575-1.052-1.132 0-.654.546-1.155 1.45-1.155.433 0 .752.091.98.194l-.194.7a1.82 1.82 0 0 0-.802-.183c-.375 0-.558.17-.558.37 0 .244.216.353.711.54.677.25.996.603.996 1.144 0 .642-.495 1.194-1.547 1.194-.439 0-.87-.12-1.087-.239zm4.01-2.941h.87v3.834h-.87zm3.327.728h-1.03v-.728h2.947v.728h-1.047v3.106h-.87zm4.213 3.106v-1.57l-1.211-2.264h.99l.392.921c.12.279.2.484.296.734h.011c.086-.239.177-.46.29-.734l.387-.921h.973l-1.263 2.235v1.599zm5.603-3.834h.87v3.106h1.525v.728h-2.395zm3.862 0h.87v3.834h-.87zm2.577.05c.227-.045.688-.079 1.12-.079.53 0 .854.051 1.132.216.268.143.46.404.46.751 0 .342-.198.66-.63.82v.01c.438.12.762.45.762.945 0 .347-.16.62-.398.813-.28.223-.746.347-1.508.347-.427 0-.745-.028-.938-.056zm.858 1.468h.285c.455 0 .7-.187.7-.472 0-.29-.222-.444-.615-.444a2.36 2.36 0 0 0-.37.023zm0 1.701c.086.011.188.011.336.011.392 0 .74-.153.74-.551 0-.387-.348-.54-.78-.54h-.296zm3.533-3.168c.278-.046.694-.08 1.154-.08.569 0 .967.085 1.24.302.228.182.353.45.353.802 0 .49-.347.825-.677.944v.017c.268.108.415.364.512.717.12.432.24.933.313 1.08h-.888c-.062-.113-.153-.42-.267-.893-.102-.478-.267-.608-.62-.614h-.262v1.507h-.859v-3.782zm.858 1.65h.342c.432 0 .688-.217.688-.552 0-.353-.239-.53-.637-.535-.21 0-.33.017-.393.028zm4.371 1.149l-.273.984h-.899l1.172-3.835h1.138l1.189 3.835h-.933l-.296-.984zm.973-.649l-.24-.813c-.067-.228-.136-.512-.193-.74h-.011c-.057.228-.114.518-.176.74l-.228.813zm2.832-2.15c.279-.046.694-.08 1.155-.08.568 0 .967.085 1.24.302.227.182.352.45.352.802 0 .49-.347.825-.676.944v.017c.267.108.415.364.511.717.12.432.24.933.313 1.08h-.887c-.063-.113-.154-.42-.268-.893-.102-.478-.267-.608-.62-.614h-.261v1.507h-.86v-3.782zm.859 1.65h.341c.432 0 .688-.217.688-.552 0-.353-.239-.53-.637-.535-.21 0-.33.017-.392.028zm4.26 2.133v-1.57l-1.211-2.264h.99l.392.921c.12.279.199.484.296.734h.011c.085-.239.176-.46.29-.734l.387-.921h.973l-1.263 2.235v1.599z" clip-path="url(#b)" fill="#b81237"/>
</svg>
