<?xml version="1.0" encoding="UTF-8" standalone="no"?><!DOCTYPE svg PUBLIC "-//W3C//DTD SVG 1.1//EN" "http://www.w3.org/Graphics/SVG/1.1/DTD/svg11.dtd"><svg width="100%" height="100%" viewBox="0 0 607 124" version="1.1" xmlns="http://www.w3.org/2000/svg" xmlns:xlink="http://www.w3.org/1999/xlink" xml:space="preserve" xmlns:serif="http://www.serif.com/" style="fill-rule:evenodd;clip-rule:evenodd;stroke-linejoin:round;stroke-miterlimit:2;"><g><path d="M81.336,61.727l22.876,22.875l22.876,-22.875l-22.876,-22.876l-22.876,22.876Z" style="fill:#fcbd13;fill-rule:nonzero;"/><path d="M35.584,79.519l22.874,22.874l22.876,-22.876l-22.874,-22.874l-22.876,22.876Z" style="fill:#b71e39;fill-rule:nonzero;"/><path d="M43.21,23.6l22.876,22.876l22.876,-22.876l-22.876,-22.876l-22.876,22.876Z" style="fill:#19315d;fill-rule:nonzero;"/><path d="M54.65,35.04l11.436,11.436l3.812,-3.813l8.898,8.899l-12.708,12.709l-3.748,-3.747l3.811,-3.811l-16.587,-16.587l5.086,-5.086Z" style="fill:#ffd16f;"/><path d="M59.798,63.065l3.748,3.747l2.542,-2.541l-3.748,-3.747l-2.542,2.541Z" style="fill:#e1872d;fill-rule:nonzero;"/><path d="M54.65,35.04l11.436,-11.436l7.625,7.626l-7.623,7.623l3.81,3.81l-3.812,3.813l-11.436,-11.436Z" style="fill:#988056;"/><path d="M111.836,38.853l-3.811,3.811l-3.813,-3.813l-15.25,15.25l-3.813,-3.812l3.81,-3.811l-11.438,-11.438l11.441,-11.44l-3.811,-3.81l3.811,-3.811l22.874,22.874Z" style="fill:#cc6765;"/><path d="M88.962,54.101l3.812,3.813l15.251,-15.25l-3.813,-3.813l-15.25,15.25Z" style="fill:#cb5737;fill-rule:nonzero;"/><path d="M73.711,31.23l3.81,3.81l11.441,-11.44l-3.811,-3.81l-11.44,11.44Z" style="fill:#7e2d49;fill-rule:nonzero;"/><path d="M77.521,35.04l11.438,11.438l-3.81,3.811l-2.54,-2.54l-3.813,3.813l-8.898,-8.899l7.623,-7.623Z" style="fill:#cd5d47;"/><path d="M66.088,38.853l3.81,3.81l7.623,-7.623l-3.81,-3.81l-7.623,7.623Z" style="fill:#b04741;fill-rule:nonzero;"/><path d="M81.334,79.517l-12.707,-12.707l12.709,-12.709l3.813,3.813l-3.813,3.813l16.523,16.523l-12.71,12.711l-7.63,-7.629l3.815,-3.815Z" style="fill:#425c85;"/><path d="M88.962,61.727l3.812,-3.813l12.711,12.711l-7.626,7.625l-16.523,-16.523l3.813,-3.813l3.813,3.813Z" style="fill:#4a5362;"/><path d="M59.734,70.625l3.812,-3.813l2.54,2.54l2.541,-2.542l12.707,12.707l-3.815,3.815l-5.081,-5.081l-2.54,2.539l-10.164,-10.165Z" style="fill:#473256;"/><path d="M66.088,64.271l2.539,2.539l12.709,-12.709l-2.54,-2.539l-12.708,12.709Z" style="fill:#49566d;fill-rule:nonzero;"/><path d="M63.546,66.812l2.54,2.54l2.541,-2.542l-2.539,-2.539l-2.542,2.541Z" style="fill:#49485e;fill-rule:nonzero;"/><path d="M81.336,54.101l3.813,3.813l3.813,-3.813l-3.813,-3.812l-3.813,3.812Z" style="fill:#474165;fill-rule:nonzero;"/><path d="M85.149,57.914l3.813,3.813l3.812,-3.813l-3.812,-3.813l-3.813,3.813Z" style="fill:#483f5a;fill-rule:nonzero;"/><path d="M78.796,51.562l2.54,2.539l3.813,-3.812l-2.54,-2.54l-3.813,3.813Z" style="fill:#483e5d;fill-rule:nonzero;"/><path d="M72.436,123.999l-22.874,-22.874l3.815,-3.814l5.081,5.082l16.522,-16.522l7.629,7.63l2.54,-2.54l10.163,10.162l-22.876,22.876Z" style="fill:#ffe6b3;"/><path d="M53.377,97.311l5.081,5.082l16.522,-16.522l-5.082,-5.081l-16.521,16.521Z" style="fill:#cb5737;fill-rule:nonzero;"/><path d="M74.98,85.871l7.629,7.63l2.54,-2.54l-7.63,-7.629l-2.539,2.539Z" style="fill:#7a787a;fill-rule:nonzero;"/><path d="M69.898,80.79l5.082,5.081l2.539,-2.539l-5.081,-5.081l-2.54,2.539Z" style="fill:#755658;fill-rule:nonzero;"/><path d="M43.208,33.769l6.356,6.357l-6.352,6.352l12.707,12.707l-16.524,16.524l-6.354,-6.355l12.71,-12.711l-12.708,-12.709l10.165,-10.165Z" style="fill:#e2aaa3;"/><path d="M39.395,75.709l3.88,3.88l16.523,-16.524l-3.879,-3.88l-16.524,16.524Z" style="fill:#b71e39;fill-rule:nonzero;"/><path d="M66.151,56.713l-3.811,3.811l-3.88,-3.881l-2.541,2.542l-12.707,-12.707l6.352,-6.352l16.587,16.587Z" style="fill:#e29259;"/><path d="M55.919,59.185l3.879,3.88l2.542,-2.541l-3.88,-3.881l-2.541,2.542Z" style="fill:#d56936;fill-rule:nonzero;"/><path d="M0,56.643l22.876,-22.876l10.167,10.167l-12.711,12.711l12.709,12.709l-10.165,10.165l-22.876,-22.876Z" style="fill:#909cb9;"/><path d="M20.332,56.645l12.709,12.709l12.71,-12.711l-12.708,-12.709l-12.711,12.711Z" style="fill:#8d788d;fill-rule:nonzero;"/><path d="M135.38,56.767c2.957,1.515 7.501,3.029 12.189,3.029c5.049,0 7.717,-2.092 7.717,-5.265c0,-3.029 -2.308,-4.76 -8.15,-6.851c-8.077,-2.813 -13.342,-7.285 -13.342,-14.353c0,-8.294 6.923,-14.64 18.391,-14.64c5.481,0 9.52,1.153 12.405,2.451l-2.452,8.871c-1.948,-0.937 -5.409,-2.307 -10.169,-2.307c-4.761,0 -7.069,2.163 -7.069,4.687c0,3.102 2.741,4.472 9.016,6.852c8.583,3.173 12.621,7.645 12.621,14.497c0,8.15 -6.274,15.146 -19.617,15.146c-5.553,0 -11.035,-1.515 -13.775,-3.03l2.235,-9.087Z" style="fill:#19325c;fill-rule:nonzero;"/><path d="M186.153,28.711l-13.054,0l0,-9.232l37.36,0l0,9.232l-13.271,0l0,39.38l-11.035,0l0,-39.38Z" style="fill:#19325c;fill-rule:nonzero;"/><path d="M237.576,47.391l-3.029,-10.314c-0.865,-2.884 -1.731,-6.491 -2.452,-9.375l-0.144,0c-0.721,2.884 -1.443,6.562 -2.236,9.375l-2.885,10.314l10.746,0Zm-12.333,8.223l-3.462,12.477l-11.395,0l14.857,-48.612l14.425,0l15.073,48.612l-11.828,0l-3.75,-12.477l-13.92,0Z" style="fill:#19325c;fill-rule:nonzero;"/><path d="M272.482,19.479l0,27.985c0,8.365 3.174,12.62 8.799,12.62c5.77,0 8.944,-4.038 8.944,-12.62l0,-27.985l10.963,0l0,27.263c0,15.001 -7.574,22.142 -20.268,22.142c-12.26,0 -19.474,-6.78 -19.474,-22.287l0,-27.118l11.036,0Z" style="fill:#19325c;fill-rule:nonzero;"/><path d="M313.519,19.479l29.715,0l0,9.015l-18.681,0l0,11.107l17.454,0l0,8.944l-17.454,0l0,19.546l-11.034,0l0,-48.612Z" style="fill:#19325c;fill-rule:nonzero;"/><path d="M354.338,19.479l29.716,0l0,9.015l-18.68,0l0,11.107l17.453,0l0,8.944l-17.453,0l0,19.546l-11.036,0l0,-48.612Z" style="fill:#19325c;fill-rule:nonzero;"/><path d="M424.081,47.535l-17.886,0l0,11.54l19.977,0l0,9.016l-31.013,0l0,-48.612l30.004,0l0,9.015l-18.968,0l0,10.099l17.886,0l0,8.942Z" style="fill:#19325c;fill-rule:nonzero;"/><path d="M447.375,41.044l4.327,0c5.481,0 8.727,-2.741 8.727,-6.996c0,-4.471 -3.029,-6.707 -8.078,-6.779c-2.668,0 -4.182,0.216 -4.976,0.36l0,13.415Zm-10.891,-20.915c3.534,-0.577 8.8,-1.01 14.642,-1.01c7.211,0 12.26,1.081 15.722,3.823c2.885,2.307 4.472,5.697 4.472,10.168c0,6.203 -4.401,10.459 -8.583,11.974l0,0.215c3.39,1.371 5.266,4.616 6.491,9.087c1.515,5.483 3.028,11.829 3.966,13.705l-11.251,0c-0.793,-1.443 -1.946,-5.338 -3.389,-11.324c-1.299,-6.058 -3.39,-7.717 -7.862,-7.789l-3.317,0l0,19.113l-10.891,0l0,-47.962Z" style="fill:#19325c;fill-rule:nonzero;"/><path d="M510.264,35.673c-0.576,-0.144 -1.298,-0.289 -2.235,-0.289c-4.761,0 -8.511,4.689 -8.511,10.242c0,2.74 1.226,4.472 3.606,4.472c2.67,0 5.481,-3.39 6.13,-7.573l1.01,-6.852Zm6.418,29.786c-4.326,2.019 -8.077,2.596 -13.197,2.596c-11.973,0 -22.502,-8.582 -22.502,-22.718c0,-14.713 10.674,-27.479 26.974,-27.479c12.693,0 21.781,8.728 21.781,20.843c0,10.531 -5.915,17.166 -13.704,17.166c-3.389,0 -5.842,-1.731 -6.202,-5.554l-0.144,0c-2.236,3.679 -5.482,5.554 -9.305,5.554c-4.688,0 -8.077,-3.462 -8.077,-9.376c0,-8.798 6.491,-16.805 16.876,-16.805c3.174,0 6.779,0.794 8.583,1.804l-2.163,13.342c-0.723,4.256 -0.217,6.203 1.803,6.275c3.1,0.072 6.996,-3.895 6.996,-12.189c0,-9.375 -6.06,-16.66 -17.238,-16.66c-11.035,0 -20.7,8.655 -20.7,22.43c0,12.045 7.718,18.897 18.464,18.897c3.678,0 7.573,-0.794 10.458,-2.236l1.297,4.11Z" style="fill:#19325c;fill-rule:nonzero;"/><path d="M536.325,58.402l0,-6.532l4.859,-3.107c9.958,-6.293 14.498,-10.356 14.498,-14.976c0,-3.904 -2.709,-5.895 -7.09,-5.895c-3.266,0 -6.771,1.354 -9.32,2.868l-2.788,-7.728c2.708,-1.912 8.523,-4.62 15.693,-4.62c9.719,0 15.694,5.099 15.694,13.065c0,6.93 -5.418,12.029 -11.233,15.852l-3.345,2.151l0,0.24c2.868,-0.399 6.532,-0.638 8.443,-0.638l8.843,0l0,9.32l-34.254,0Z" style="fill:#19325c;fill-rule:nonzero;"/><path d="M575.551,58.402c1.752,0.479 5.178,0.956 8.525,0.956c5.576,0 10.355,-2.549 10.355,-7.169c0,-1.594 -0.557,-3.028 -1.673,-4.143c-2.23,-2.151 -6.692,-3.186 -16.888,-2.947l4.222,-25.731l26.049,0l-1.353,9.798l-16.889,0l-1.355,7.648c6.771,0.08 12.827,1.513 16.65,5.098c2.391,2.391 3.744,5.497 3.744,9.48c0,9.559 -7.647,16.968 -21.747,16.968c-4.462,0 -8.763,-0.717 -10.994,-1.514l1.354,-8.444Z" style="fill:#19325c;fill-rule:nonzero;"/><path d="M141.727,91.078c2.701,0 4.291,-2.568 4.291,-6.064c0,-3.257 -1.537,-5.959 -4.291,-5.959c-2.754,0 -4.343,2.702 -4.343,6.039c-0.027,3.389 1.616,5.984 4.317,5.984l0.026,0Zm7.468,5.985c-2.542,-0.741 -4.661,-1.51 -7.044,-2.515c-0.398,-0.16 -0.821,-0.239 -1.245,-0.265c-4.025,-0.266 -7.786,-3.23 -7.786,-9.058c0,-5.348 3.39,-9.374 8.713,-9.374c5.456,0 8.448,4.131 8.448,9.003c0,4.053 -1.88,6.913 -4.237,7.972l0,0.106c1.377,0.398 2.913,0.715 4.316,1.007l-1.165,3.124Z" style="fill:#b81e39;fill-rule:nonzero;"/><path d="M161.454,76.143l0,10.274c0,3.073 1.166,4.636 3.231,4.636c2.119,0 3.284,-1.483 3.284,-4.636l0,-10.274l4.025,0l0,10.01c0,5.508 -2.781,8.13 -7.442,8.13c-4.501,0 -7.15,-2.489 -7.15,-8.183l0,-9.957l4.052,0Z" style="fill:#b81e39;fill-rule:nonzero;"/><path d="M190.608,86.444l-6.567,0l0,4.237l7.336,0l0,3.311l-11.388,0l0,-17.849l11.017,0l0,3.31l-6.965,0l0,3.708l6.567,0l0,3.283Z" style="fill:#b81e39;fill-rule:nonzero;"/><path d="M209.251,86.444l-6.568,0l0,4.237l7.336,0l0,3.311l-11.388,0l0,-17.849l11.017,0l0,3.31l-6.965,0l0,3.708l6.568,0l0,3.283Z" style="fill:#b81e39;fill-rule:nonzero;"/><path d="M217.272,93.992l0,-17.849l4.714,0l3.707,6.54c1.06,1.881 2.119,4.106 2.914,6.118l0.079,0c-0.265,-2.357 -0.344,-4.767 -0.344,-7.468l0,-5.19l3.707,0l0,17.849l-4.237,0l-3.813,-6.886c-1.059,-1.906 -2.225,-4.21 -3.099,-6.303l-0.08,0.027c0.107,2.357 0.16,4.873 0.16,7.785l0,5.377l-3.708,0Z" style="fill:#b81e39;fill-rule:nonzero;"/><path d="M244.329,75.666c-0.822,2.569 -1.987,5.164 -3.179,7.15l-2.436,0.238c0.795,-2.277 1.484,-4.819 1.828,-7.15l3.787,-0.238Z" style="fill:#b81e39;fill-rule:nonzero;"/><path d="M250.577,89.834c1.087,0.556 2.754,1.113 4.476,1.113c1.853,0 2.832,-0.769 2.832,-1.934c0,-1.112 -0.846,-1.748 -2.991,-2.516c-2.966,-1.032 -4.899,-2.674 -4.899,-5.27c0,-3.045 2.542,-5.376 6.752,-5.376c2.013,0 3.496,0.424 4.555,0.901l-0.9,3.258c-0.715,-0.345 -1.987,-0.848 -3.733,-0.848c-1.749,0 -2.596,0.794 -2.596,1.722c0,1.137 1.007,1.641 3.31,2.515c3.152,1.165 4.635,2.807 4.635,5.322c0,2.993 -2.305,5.562 -7.203,5.562c-2.04,0 -4.052,-0.557 -5.059,-1.112l0.821,-3.337Z" style="fill:#b81e39;fill-rule:nonzero;"/><path d="M282.861,76.143l0,10.274c0,3.073 1.165,4.636 3.231,4.636c2.119,0 3.284,-1.483 3.284,-4.636l0,-10.274l4.025,0l0,10.01c0,5.508 -2.78,8.13 -7.441,8.13c-4.502,0 -7.15,-2.489 -7.15,-8.183l0,-9.957l4.051,0Z" style="fill:#b81e39;fill-rule:nonzero;"/><path d="M301.396,93.992l0,-17.849l4.714,0l3.707,6.54c1.06,1.881 2.12,4.106 2.914,6.118l0.079,0c-0.265,-2.357 -0.344,-4.767 -0.344,-7.468l0,-5.19l3.707,0l0,17.849l-4.236,0l-3.814,-6.886c-1.059,-1.906 -2.225,-4.21 -3.099,-6.303l-0.079,0.027c0.106,2.357 0.159,4.873 0.159,7.785l0,5.377l-3.708,0Z" style="fill:#b81e39;fill-rule:nonzero;"/><rect x="324.169" y="76.143" width="4.051" height="17.849" style="fill:#b81e39;fill-rule:nonzero;"/><path d="M340.427,93.992l-5.72,-17.849l4.422,0l2.172,7.547c0.61,2.119 1.165,4.157 1.589,6.382l0.079,0c0.45,-2.144 1.007,-4.263 1.617,-6.303l2.276,-7.626l4.29,0l-6.011,17.849l-4.714,0Z" style="fill:#b81e39;fill-rule:nonzero;"/><path d="M368.178,86.444l-6.567,0l0,4.237l7.335,0l0,3.311l-11.387,0l0,-17.849l11.017,0l0,3.31l-6.965,0l0,3.708l6.567,0l0,3.283Z" style="fill:#b81e39;fill-rule:nonzero;"/><path d="M380.199,84.06l1.59,0c2.011,0 3.204,-1.006 3.204,-2.568c0,-1.642 -1.113,-2.463 -2.967,-2.489c-0.98,0 -1.535,0.079 -1.827,0.133l0,4.924Zm-3.998,-7.679c1.297,-0.211 3.23,-0.37 5.376,-0.37c2.647,0 4.502,0.396 5.773,1.403c1.059,0.847 1.641,2.093 1.641,3.734c0,2.278 -1.615,3.84 -3.151,4.397l0,0.079c1.245,0.502 1.933,1.694 2.384,3.336c0.556,2.012 1.112,4.343 1.455,5.032l-4.131,0c-0.291,-0.53 -0.713,-1.96 -1.244,-4.158c-0.476,-2.225 -1.245,-2.833 -2.886,-2.86l-1.219,0l0,7.018l-3.998,0l0,-17.611Z" style="fill:#b81e39;fill-rule:nonzero;"/><path d="M396.537,89.834c1.086,0.556 2.754,1.113 4.475,1.113c1.854,0 2.834,-0.769 2.834,-1.934c0,-1.112 -0.848,-1.748 -2.993,-2.516c-2.966,-1.032 -4.899,-2.674 -4.899,-5.27c0,-3.045 2.543,-5.376 6.753,-5.376c2.012,0 3.496,0.424 4.554,0.901l-0.899,3.258c-0.716,-0.345 -1.987,-0.848 -3.734,-0.848c-1.749,0 -2.596,0.794 -2.596,1.722c0,1.137 1.006,1.641 3.31,2.515c3.151,1.165 4.635,2.807 4.635,5.322c0,2.993 -2.305,5.562 -7.203,5.562c-2.039,0 -4.053,-0.557 -5.059,-1.112l0.822,-3.337Z" style="fill:#b81e39;fill-rule:nonzero;"/><rect x="415.205" y="76.143" width="4.051" height="17.849" style="fill:#b81e39;fill-rule:nonzero;"/><path d="M430.695,79.533l-4.792,0l0,-3.39l13.717,0l0,3.39l-4.872,0l0,14.459l-4.053,0l0,-14.459Z" style="fill:#b81e39;fill-rule:nonzero;"/><path d="M450.311,93.992l0,-7.31l-5.641,-10.539l4.609,0l1.827,4.289c0.557,1.298 0.927,2.251 1.377,3.416l0.053,0c0.398,-1.112 0.821,-2.144 1.35,-3.416l1.802,-4.289l4.528,0l-5.88,10.408l0,7.441l-4.025,0Z" style="fill:#b81e39;fill-rule:nonzero;"/><path d="M476.393,76.143l4.053,0l0,14.459l7.097,0l0,3.39l-11.15,0l0,-17.849Z" style="fill:#b81e39;fill-rule:nonzero;"/><rect x="494.373" y="76.143" width="4.052" height="17.849" style="fill:#b81e39;fill-rule:nonzero;"/><path d="M510.366,91.132c0.397,0.051 0.875,0.051 1.563,0.051c1.826,0 3.443,-0.714 3.443,-2.568c0,-1.799 -1.617,-2.515 -3.628,-2.515l-1.378,0l0,5.032Zm0,-7.919l1.324,0c2.119,0 3.257,-0.873 3.257,-2.198c0,-1.35 -1.033,-2.065 -2.861,-2.065c-0.873,0 -1.375,0.053 -1.72,0.105l0,4.158Zm-3.999,-6.832c1.059,-0.211 3.205,-0.37 5.218,-0.37c2.462,0 3.972,0.238 5.269,1.005c1.244,0.662 2.146,1.881 2.146,3.496c0,1.589 -0.927,3.073 -2.94,3.814l0,0.053c2.038,0.555 3.547,2.091 3.547,4.395c0,1.616 -0.74,2.887 -1.853,3.788c-1.298,1.033 -3.468,1.615 -7.017,1.615c-1.986,0 -3.469,-0.132 -4.37,-0.265l0,-17.531Z" style="fill:#b81e39;fill-rule:nonzero;"/><path d="M530.808,84.06l1.589,0c2.013,0 3.205,-1.006 3.205,-2.568c0,-1.642 -1.112,-2.463 -2.967,-2.489c-0.979,0 -1.535,0.079 -1.827,0.133l0,4.924Zm-3.998,-7.679c1.297,-0.211 3.231,-0.37 5.376,-0.37c2.648,0 4.502,0.396 5.774,1.403c1.058,0.847 1.64,2.093 1.64,3.734c0,2.278 -1.615,3.84 -3.15,4.397l0,0.079c1.244,0.502 1.932,1.694 2.383,3.336c0.556,2.012 1.112,4.343 1.456,5.032l-4.131,0c-0.291,-0.53 -0.714,-1.96 -1.244,-4.158c-0.477,-2.225 -1.245,-2.833 -2.887,-2.86l-1.219,0l0,7.018l-3.998,0l0,-17.611Z" style="fill:#b81e39;fill-rule:nonzero;"/><path d="M555.682,86.391l-1.111,-3.786c-0.318,-1.059 -0.636,-2.384 -0.902,-3.443l-0.052,0c-0.265,1.059 -0.531,2.41 -0.822,3.443l-1.058,3.786l3.945,0Zm-4.528,3.019l-1.272,4.582l-4.183,0l5.455,-17.849l5.297,0l5.533,17.849l-4.342,0l-1.378,-4.582l-5.11,0Z" style="fill:#b81e39;fill-rule:nonzero;"/><path d="M572.867,84.06l1.589,0c2.012,0 3.205,-1.006 3.205,-2.568c0,-1.642 -1.113,-2.463 -2.967,-2.489c-0.98,0 -1.535,0.079 -1.827,0.133l0,4.924Zm-3.998,-7.679c1.297,-0.211 3.23,-0.37 5.376,-0.37c2.647,0 4.502,0.396 5.773,1.403c1.059,0.847 1.641,2.093 1.641,3.734c0,2.278 -1.615,3.84 -3.151,4.397l0,0.079c1.245,0.502 1.933,1.694 2.384,3.336c0.556,2.012 1.111,4.343 1.455,5.032l-4.131,0c-0.291,-0.53 -0.713,-1.96 -1.244,-4.158c-0.476,-2.225 -1.245,-2.833 -2.886,-2.86l-1.219,0l0,7.018l-3.998,0l0,-17.611Z" style="fill:#b81e39;fill-rule:nonzero;"/><path d="M592.7,93.992l0,-7.31l-5.641,-10.539l4.609,0l1.827,4.289c0.555,1.298 0.926,2.251 1.377,3.416l0.052,0c0.398,-1.112 0.822,-2.144 1.351,-3.416l1.801,-4.289l4.529,0l-5.88,10.408l0,7.441l-4.025,0Z" style="fill:#b81e39;fill-rule:nonzero;"/></g></svg>